<?xml version="1.0" encoding="UTF-8"?>
<svg id="Layer_1" data-name="Layer 1" xmlns="http://www.w3.org/2000/svg" viewBox="0 0 372.2 436.14">
  <defs>
    <style>
      .cls-1 {
        fill: #a777ae;
      }

      .cls-2 {
        fill: #66a9ce;
      }

      .cls-3 {
        fill: #6e88ae;
      }

      .cls-4 {
        fill: #033592;
      }

      .cls-5 {
        fill: #ffb47d;
      }

      .cls-6 {
        fill: #fddeaa;
      }

      .cls-7 {
        fill: #5975b2;
      }

      .cls-8 {
        fill: #eccc64;
      }

      .cls-9 {
        fill: #a787ab;
      }

      .cls-10 {
        fill: #ccd7e2;
      }

      .cls-11 {
        fill: #ff9c2b;
      }

      .cls-12 {
        fill: #e9f2f4;
      }

      .cls-13 {
        fill: #aae4e0;
      }

      .cls-14 {
        fill: #f5a093;
      }

      .cls-15 {
        fill: #77c5d5;
      }

      .cls-16 {
        fill: #c8c0c5;
      }

      .cls-17 {
        fill: #9aa1d2;
      }

      .cls-18 {
        fill: #443488;
      }

      .cls-19 {
        fill: #e0e9e2;
      }

      .cls-20 {
        fill: #9ab0cf;
      }

      .cls-21 {
        fill: #c98fa0;
      }

      .cls-22 {
        fill: #f7b3b4;
      }

      .cls-23 {
        fill: #6468ac;
      }

      .cls-24 {
        fill: #ecc2bc;
      }

      .cls-25 {
        fill: #e0caaa;
      }

      .cls-26 {
        fill: #f4b974;
      }

      .cls-27 {
        fill: #7373f2;
      }

      .cls-28 {
        fill: #7e80b2;
      }

      .cls-29 {
        fill: #b668b6;
      }

      .cls-30 {
        fill: #9983f6;
      }

      .cls-31 {
        fill: #0877b8;
      }

      .cls-32 {
        fill: #a255d7;
      }

      .cls-33 {
        fill: #ccf5ee;
      }

      .cls-34 {
        fill: #9c61ae;
      }

      .cls-35 {
        fill: #f9cf81;
      }

      .cls-36 {
        fill: #cce5dc;
      }

      .cls-37 {
        fill: #81a8d1;
      }

      .cls-38 {
        fill: #c49ce2;
      }

      .cls-39 {
        fill: #a993f7;
      }

      .cls-40 {
        fill: #6853a5;
      }

      .cls-41 {
        fill: #adead3;
      }

      .cls-42 {
        fill: #9582b0;
      }

      .cls-43 {
        fill: #c6d4d6;
      }

      .cls-44 {
        fill: #e2d2d9;
      }

      .cls-45 {
        fill: #39c3e7;
      }

      .cls-46 {
        fill: #3c75c2;
      }

      .cls-47 {
        fill: #e6d1cd;
      }

      .cls-48 {
        fill: #179fd6;
      }

      .cls-49 {
        fill: #d5becf;
      }

      .cls-50 {
        fill: #b2bcc7;
      }

      .cls-51 {
        fill: #8497be;
      }

      .cls-52 {
        fill: #6a74cd;
      }

      .cls-53 {
        fill: #024c9e;
      }

      .cls-54 {
        fill: #8c8bc9;
      }

      .cls-55 {
        fill: #d77f91;
      }

      .cls-56 {
        fill: #51449c;
      }

      .cls-57 {
        fill: #e3928f;
      }

      .cls-58 {
        fill: #564a86;
      }

      .cls-59 {
        fill: #e4e1cf;
      }

      .cls-60 {
        fill: #d69d92;
      }

      .cls-61 {
        fill: #857ac6;
      }

      .cls-62 {
        fill: #c395ca;
      }

      .cls-63 {
        fill: #0267b0;
      }

      .cls-64 {
        fill: #f9a1af;
      }

      .cls-65 {
        fill: #ea9d7b;
      }

      .cls-66 {
        fill: #c889aa;
      }

      .cls-67 {
        fill: #e87296;
      }

      .cls-68 {
        fill: #efcbb9;
      }

      .cls-69 {
        fill: #a2bfd8;
      }

      .cls-70 {
        fill: #a7b7f3;
      }

      .cls-71 {
        fill: #ca74b1;
      }

      .cls-72 {
        fill: #c3e8ef;
      }

      .cls-73 {
        fill: #8043c4;
      }

      .cls-74 {
        fill: #e9e2ac;
      }

      .cls-75 {
        fill: #fbe085;
      }

      .cls-76 {
        fill: #e3fcf8;
      }

      .cls-77 {
        fill: #6436bb;
      }

      .cls-78 {
        fill: #e5c0c7;
      }

      .cls-79 {
        fill: #9aa7b8;
      }

      .cls-80 {
        fill: #d0c8df;
      }

      .cls-81 {
        fill: #fbbaab;
      }

      .cls-82 {
        fill: #c1c5bf;
      }

      .cls-83 {
        fill: #f67b8e;
      }

      .cls-84 {
        fill: #afb0cd;
      }

      .cls-85 {
        fill: #fdcca4;
      }

      .cls-86 {
        fill: #7957c6;
      }

      .cls-87 {
        fill: #eeba98;
      }

      .cls-88 {
        fill: #b3d3cb;
      }

      .cls-89 {
        fill: #dcc3e3;
      }

      .cls-90 {
        fill: #b1a6db;
      }

      .cls-91 {
        fill: #86b9d7;
      }

      .cls-92 {
        fill: #bacee5;
      }
    </style>
  </defs>
  <g id="Generative_Object" data-name="Generative Object">
    <path class="cls-48" d="M226.54,319.6c.76-.42,1.19-.3,2.04-.68"/>
    <g>
      <path class="cls-73" d="M131.13,401.38c-.21,7.46-.09,15.09-1.36,22.49-1.82-.1-2.68.64-3.41.68-1.31-.18-.41-2.01-.68-2.73,3.47-5.36,3.26-13.94,3.41-20.45h2.04Z"/>
      <path class="cls-32" d="M221.09,361.17c.44-.05.92.02,1.36,0"/>
      <path class="cls-32" d="M215.64,393.21c-.54.94-.09,3.28-2.39,2.73l-3.07-3.41c1.09-3.44,9.25-31.17,10.9-31.35"/>
      <g>
        <path class="cls-52" d="M61.61,140.36c7.02.8,14.11,3.17,21.13,4.09v2.04c-11.34-.89-22.71-2.09-34.08-2.73-3.55-.2-41.35-3.4-40.89,1.02,13.11,3.82,28.8,2.47,42.94,3.07,7.04.3,14.11,1.12,21.13,1.36v2.04c-10.1.03-19.81-.52-29.99,0-10.99.56-21.98,2.75-33.05,2.73-1.84,1.32-.1,1.45.34,2.73,2.84,8.18,6.51,1.94,13.63,4.77-2.94.38-6.22.44-9.2.68l-.68,1.36c.09.57,2.06,1.67,2.39,2.04.41.48,3.85,3.93,4.09,4.09l-.68,1.36c-10.2-7.16-14.03-11.5-17.04-23.85.44-1.71,1.61.17,2.04,0,3.68-1.42,1.28-1.46,2.04-2.39,2.57-3.12,4.51-5.69,7.5-8.52,15.65,3.01,32.39,2.27,48.39,4.09Z"/>
        <path class="cls-67" d="M144.08,171.71c-3.06.73-18.74,9.11-19.76,12.95-4.31,3.12-8.05,7.28-12.27,10.56.4.52,3.94.48,4.77.34,2.13-.35,15.11-10.89,18.74-12.95,5.04-2.86,11.01-4.49,16.02-7.5-.2.27.48,1.36-1.02,2.73-6.92,6.27-20.6,9.77-24.88,19.76-13.07-1.3-25.93-2.55-38.85-4.77.06-1.38-.62-.92,0-2.04,1.67-.78,2.53,1.52,3.75,1.36,1.01-.13,12.79-10.3,16.36-12.27,8.9-4.92,17.22-7.11,26.92-9.54-5.22,4.04-12.79,5.68-18.74,9.54-1.38.9-14.76,11.65-14.65,12.61.16,1.44,1.46,1.25,2.39,1.02,1.04-.25,13.88-11.09,17.04-12.95,7.06-4.15,14.8-6.73,22.15-10.22.61.3,2.03-.14,2.04,1.36Z"/>
        <path class="cls-66" d="M112.73,160.13c-.14.71.21,2.4,0,2.73-.99.2-1.83.47-2.73.68-12.95,3.04-35.08,14.04-46.68,21.13-1.24.76-1.93,1.24-2.39,2.73-2.03-.51-4.12-.8-6.13-1.36l.68-2.73c3.32-.84,9.42-4.57,12.95-6.13,15.46-6.86,27.47-13.12,44.3-17.04Z"/>
        <path class="cls-68" d="M125.67,161.49c3.66.4,4.24,2.52,6.13,3.41-2.46.56-5.01.95-7.5,1.36.28-3.56-.84-1.35-1.7-1.36-6.88-.13-12.87,1.5-19.42,3.41-14.49,4.22-26.06,13.39-39.53,19.76-.93-.22-1.81-.45-2.73-.68.46-1.48,1.14-1.97,2.39-2.73,11.6-7.08,33.74-18.09,46.68-21.13,1.09-.1,1.96.5,2.73-.68,2.43-.48,10.94-1.58,12.95-1.36Z"/>
        <path class="cls-73" d="M364.89,147.18c.29,4.73-3.32,5.7-2.04,9.54-2.94,3.39-4.68,4.81-8.18,7.5-1.81.49-1.27-1.36-1.36-1.36,2.36-1.81,3.54-2.29,5.45-4.77.65-.84,3.09-1.34,1.7-3.41-5.74-1.3-11.54-1.55-17.38-2.04-1.8-3.37-6.05,1.48-4.77-6.13,8.88-.13,17.74.02,26.58.68Z"/>
        <path class="cls-66" d="M103.18,168.3l.68,3.41c-7.24,2.82-20.57,9.9-26.92,14.31-1.46,1.02-4.04,2.19-2.39,4.09-3.63-.75-7.25-1.17-10.9-2.04,13.47-6.37,25.04-15.54,39.53-19.76Z"/>
        <path class="cls-83" d="M165.2,187.39l-8.86,11.25c2.68-.29,2.58,1.64,2.73,1.7-4.73-.66-9.58-.35-14.31-.68-.81-2.7,1.68-3.82,2.73-5.45.96,1.94.86,1.29,2.04.34,1.51-1.21,15.71-14.42,16.36-15.33-.13,2.71-.38,5.49-.68,8.18Z"/>
        <path class="cls-66" d="M124.99,168.99c-9.57,2.52-33.42,13.2-38.17,21.81-.62,1.13.06.66,0,2.04-3.45-.59-6.81-1.37-10.22-2.04,12.46-7.64,31.55-21.07,46-23.17.76-.11,3.95-.61,2.39,1.36Z"/>
        <path class="cls-24" d="M131.81,164.9c1.24.58,2.26,1.41,3.41,2.04-1.52.74-3.22.41-4.77.68-.85-1.32-4.01-1.07-3.41.68-.57.13-1.19.46-2.04.68,1.56-1.98-1.63-1.47-2.39-1.36-14.45,2.1-33.54,15.54-46,23.17-1.09-.22-1.94-.66-2.04-.68-1.65-1.9.92-3.07,2.39-4.09,6.35-4.41,19.68-11.49,26.92-14.31,6.56-2.55,13.47-4.28,20.45-5.45,2.49-.42,5.04-.8,7.5-1.36Z"/>
        <path class="cls-67" d="M161.11,174.44l-25.22,24.53c-2.69-.21-5.49-.43-8.18-.68l30.67-23.85c.88.12,1.86-.14,2.73,0Z"/>
        <path class="cls-67" d="M163.84,177.16c-7.09,6.74-10.73,8.19-16.36,17.04-1.04,1.64-3.54,2.75-2.73,5.45-1.32-.09-4.86-1.27-6.13-1.36,6.47-7.98,15.32-17.79,25.22-21.13Z"/>
        <path class="cls-64" d="M158.39,174.44l-30.67,23.85c-1.63-.15-1.94-.67-2.04-.68,4.28-9.99,17.95-13.49,24.88-19.76,1.51-1.37.82-2.46,1.02-2.73.49-.66,2.53-.35,2.04-2.04.58-.01,4.07,1.27,4.77,1.36Z"/>
        <path class="cls-64" d="M164.52,175.12c1.16,1.6.21,1.2-.68,2.04-9.89,3.34-18.74,13.14-25.22,21.13-.4-.03-1.12.81-2.73.68l25.22-24.53c1.2.19,2.24.44,3.41.68Z"/>
        <path class="cls-83" d="M163.84,201.02c-1.32-.81-3.98-.37-4.77-.68-.15-.06-.05-1.99-2.73-1.7l8.86-11.25c-.56,4.97-1.31,8.8-1.36,13.63Z"/>
        <path class="cls-11" d="M245.62,161.49v.68c-.52.05-1.98,1.03-2.73,1.36-.79.36-3.63,1.63-3.41,2.73-4.33-.06-5.07,1.95-7.5,2.73-1.85.59-3.9,1.61-5.45,2.04-.71.2-2.45,1.29-2.73,1.36-2.73.74-6.42,1.28-9.54,2.04-2.47.61-6.54.81-8.86,1.36-.21.05-.47-.05-.68,0-1.07.26-2.41-.35-3.41.68-.79-4.21-.89-6.64-.68-10.9.7-.1,2.41-1.27,2.73-1.36.56-.16,1.47.16,2.04,0,1.35-.38,2.69-.98,4.09-1.36,1.21-.33,3.46-.25,4.77-.68.56-.18.81-.49,1.36-.68,3.16,1.2,7.45.19,10.9,0,6.3-.34,12.82-.76,19.08,0Z"/>
        <path class="cls-87" d="M239.49,166.26c6.4.09,17.27,4.1,23.17,6.82s16.74,8.42,17.72,14.99c-1.66.22-2.25-.8-3.41-.68-9.51-11.84-24.08-16.99-38.51-19.76l32.37,21.81c-1.54.15-2.25.61-3.75,0-3.22-1.3-13.15-9.62-18.06-12.27-5.59-3.01-11.62-4.93-17.04-8.18,2.43-.77,3.16-2.79,7.5-2.73Z"/>
        <path class="cls-14" d="M296.05,169.67c-.88,1.45-1.42-.34-2.04,2.04-.27,1.02-.06,1.34.68,2.04l-1.36,2.73c-7.62-4.5-39.74-15-47.71-14.31v-.68c-.12-.79.66-.64.68-.68,16.95,1.17,33.37,4.41,49.75,8.86Z"/>
        <path class="cls-57" d="M276.97,187.39c-1.79.19-5.6,1.99-6.13,2.04l-32.37-21.81c14.42,2.77,29,7.92,38.51,19.76Z"/>
        <path class="cls-68" d="M293.33,176.48c3.88,2.29,16.24,12.17,4.09,6.13-10.11-5.02-14.47-7.97-25.9-11.59-9.43-2.99-19.09-4.94-28.62-7.5.74-.33,2.2-1.32,2.73-1.36,7.97-.68,40.09,9.82,47.71,14.31Z"/>
        <path class="cls-57" d="M297.42,182.62c-.34,2.43-4.18,2.74-6.82,3.41-5.33-6.73-10.92-10.46-19.08-12.95v-2.04c11.43,3.62,15.78,6.56,25.9,11.59Z"/>
        <path class="cls-57" d="M264.02,172.39c9.11,1.36,16.55,6.9,22.49,13.63-1.53.3-3.37,1.67-6.13,2.04-.98-6.58-11.82-12.28-17.72-14.99-.08-1.04,1.32-.6,1.36-.68Z"/>
        <path class="cls-14" d="M231.99,168.99c5.42,3.25,11.45,5.17,17.04,8.18l-.68,2.73c-6.73-3.94-15.18-4.71-21.81-8.86,1.55-.44,3.6-1.46,5.45-2.04Z"/>
        <path class="cls-68" d="M271.52,173.08c8.16,2.49,13.75,6.22,19.08,12.95-2.74.69-3.05-.2-4.09,0-5.94-6.74-13.38-12.27-22.49-13.63.25-.5-1.14-.9-.34-1.36,2.69-.05,5.28,1.27,7.84,2.04Z"/>
        <path class="cls-83" d="M212.91,200.34c-2.58.57-4.84.99-7.5.68-.29-.69-1.29-4.23-1.36-4.77-.43-3.37.55-5.53.68-6.82l8.18,10.9Z"/>
        <path class="cls-24" d="M312.41,180.57c-.24,1.4-1.26,1.11-2.04,1.36-3.64-2.34-12.93-5.56-15.67-8.18-.74-.71-.95-1.02-.68-2.04,6.02-.39,14.01,7.81,18.4,8.86Z"/>
        <g>
          <path class="cls-83" d="M223.81,172.39c6.6,3.2,14.55,4.91,20.79,8.86,2.19,1.39,15.25,15.76,16.7,9.88.2-.83-11.73-10.53-12.95-11.25l.68-2.73c4.91,2.64,14.84,10.96,18.06,12.27,1.5.61,2.21.15,3.75,0,.54-.05,4.34-1.85,6.13-2.04,1.16-.12,1.75.9,3.41.68,2.77-.37,4.6-1.75,6.13-2.04,1.03-.2,1.35.69,4.09,0s6.48-.98,6.82-3.41c12.15,6.04-.21-3.84-4.09-6.13l1.36-2.73c2.75,2.62,12.03,5.84,15.67,8.18-2.3.73-6.61.57-6.13,3.41-31.4,8.53-65.19,13.87-97.46,17.04-2.48.24-1.33-1.27-1.36-1.36,2.65.31,4.92-.11,7.5-.68.3-.07,3.08,1.4,2.73-1.7-.17-1.28-9.72-10.2-10.9-11.93-.77-1.13-3.07-4.75-3.41-5.79-.54-1.67.71-1.62.68-1.7,1.52.41,3.28,1.76,4.43,2.73,2.31,1.96,16.61,19.65,18.74,16.7,1.6-2.22-19.19-17.73-20.45-19.76-1.13-1.83-.04-1.32,0-3.07.21-.05.47.05.68,0,2.86,2.68,24.56,22.09,26.24,21.81.94-.16.93-1.17.68-2.04-.76-2.69-20.68-13.92-21.81-19.76l29.31,19.76,1.7-1.02c-6.31-10.73-19.07-11.58-27.26-20.1,3.12-.77,6.81-1.3,9.54-2.04Z"/>
          <g>
            <path class="cls-22" d="M214.27,174.44c8.19,8.52,20.95,9.37,27.26,20.1l-1.7,1.02-29.31-19.76c1.12,5.85,21.04,17.08,21.81,19.76.25.88.26,1.89-.68,2.04-1.68.28-23.38-19.13-26.24-21.81,2.32-.55,6.39-.76,8.86-1.36Z"/>
            <path class="cls-81" d="M248.35,179.89c1.22.72,13.15,10.41,12.95,11.25-1.44,5.88-14.51-8.5-16.7-9.88-6.23-3.94-14.18-5.66-20.79-8.86.28-.08,2.02-1.16,2.73-1.36,6.63,4.15,15.08,4.92,21.81,8.86Z"/>
            <path class="cls-64" d="M204.73,175.8c-.04,1.75-1.13,1.23,0,3.07,1.26,2.04,22.04,17.55,20.45,19.76-2.13,2.95-16.43-14.74-18.74-16.7-1.15-.97-2.91-2.31-4.43-2.73-.14-.52-.65-2.55-.68-2.73,1-1.04,2.34-.43,3.41-.68Z"/>
            <path class="cls-64" d="M212.91,200.34l-8.18-10.9c.12-1.23-1.53-2.27,0-2.73,1.19,1.73,10.73,10.65,10.9,11.93.36,3.11-2.42,1.64-2.73,1.7Z"/>
            <path class="cls-81" d="M226.88,177.16c7.76,5.43,16.98,8.13,22.15,16.7-1.06,1.84-7.91-6.91-9.2-7.84-3.92-2.81-11.55-4.15-12.95-8.86Z"/>
          </g>
        </g>
        <path class="cls-65" d="M84.78,149.22c15.67.56,31.42.38,47.02,2.04.16,1.15-1.3,2.12-.34,2.73.46.29,9.44-.24,10.9,0,.55.09.13,1.27.68,1.36,3.22.55,8.96-.19,11.25,2.73-4.25,1.02-2.47-.52-5.79-.68-3.98-.2-28.98-1.77-22.83,4.09-2.01-.22-10.52.88-12.95,1.36.21-.33-.14-2.02,0-2.73,2.37-.55,9.01-3.63,3.75.68l6.47-1.02c-5.91-5.19-17.62.22-24.53,2.39l-.68-2.73c.53-.18,2.26,0,1.7-1.36-10.28.67-20.24,1.97-30.33,4.09l2.04-2.73c1.32-.07,2.87.19,4.09,0,5.63-.87,3.15-2.29,3.41-2.39,10.83-4.13,31.57,2.41,42.94-4.09-15.09-3.17-30.9-.94-46.34-1.02-.17,0-1.81-.69-3.41-.68v-2.04c4.3.15,8.65-.15,12.95,0Z"/>
        <path class="cls-1" d="M71.15,159.45l-2.04,2.73c-3.38.71-6.3,1.84-9.54,2.73-9.72,2.65-19.83,5.51-28.62,10.22-2.91-1.36-4.8-2.52-7.5-4.09l18.74-6.13-20.79,5.45c-.73-.47-1.96-.62-2.04-.68-.24-.16-3.68-3.61-4.09-4.09,16.8.55,32.91-5.1,49.41-6.82,2.59-.27,4.57.79,6.47.68Z"/>
        <path class="cls-61" d="M75.24,152.63c1.56,0,4.36-.54,5.45.68-2.22.25-7.28.31-7.5,2.04-17.97,1.25-32.74,3.86-50.43,6.13-7.12-2.84-10.79,3.41-13.63-4.77,10.93-.84,21.75-2.05,32.71-2.73s22.41-1.4,33.39-1.36Z"/>
        <path class="cls-80" d="M77.29,155.36c-.53,2.97-3.94-.42-2.04,4.09-1.22.19-2.77-.07-4.09,0-1.9.11-3.89-.95-6.47-.68-16.5,1.72-32.61,7.36-49.41,6.82-.32-.38-2.29-1.48-2.39-2.04l.68-1.36c2.98-.24,6.26-.3,9.2-.68,17.69-2.27,32.46-4.88,50.43-6.13,1.36-.09,3.06.06,4.09,0Z"/>
        <path class="cls-70" d="M48.66,143.77c-.9,3.54,1.79,1.75,2.04,4.09-14.13-.6-29.82.75-42.94-3.07-.46-4.42,37.34-1.22,40.89-1.02Z"/>
        <path class="cls-70" d="M20.04,131.5c-.46.47-1.55,1.49-1.7,2.04,10.47-1.36,20.83,1.69,31.01,3.41,4.08.69,8.18,1.39,12.27,2.04v1.36c-15.99-1.82-32.74-1.08-48.39-4.09,2-1.9,3.85-4.28,6.82-4.77Z"/>
        <path class="cls-60" d="M129.76,147.86c.54.34,2.65,1.45,2.73,1.7.34,1.09-.69.96-.68,1.02-15.31-2.75-30.98-1.51-46.34-2.73-.15-.01-1.02-1.23-2.73-1.36v-2.04c10.48,1.38,21.09,2.48,31.69,2.73-8.08-2.01-16.61-2.28-24.88-3.41l.68-2.04c13.15,2.62,26.48,3.05,39.53,6.13Z"/>
        <path class="cls-80" d="M82.74,146.5c1.71.13,2.57,1.35,2.73,1.36l-.68,1.36c-4.3-.15-8.65.15-12.95,0-7.02-.24-14.08-1.07-21.13-1.36-.25-2.34-2.94-.55-2.04-4.09,11.37.64,22.74,1.84,34.08,2.73Z"/>
        <path class="cls-70" d="M41.85,151.27v2.73c-10.96.67-21.78,1.89-32.71,2.73-.44-1.28-2.18-1.41-.34-2.73,11.07.03,22.06-2.17,33.05-2.73Z"/>
        <path class="cls-10" d="M71.83,151.27c1.6,0,3.23.68,3.41.68v.68c-10.99-.04-22.42.69-33.39,1.36v-2.73c10.18-.52,19.89.03,29.99,0Z"/>
        <path class="cls-16" d="M89.55,143.77c8.26,1.12,16.8,1.4,24.88,3.41-10.6-.25-21.21-1.35-31.69-2.73-7.02-.92-14.11-3.29-21.13-4.09v-1.36c9.34,1.51,18.51,3.49,27.94,4.77Z"/>
        <path class="cls-11" d="M154.3,158.08c1.07-.26,2.23.37,3.41-.68,1.98,1.05,4.01,1.99,5.79,3.41l1.02-1.36c1.7,1.5,3.82,2.65,5.45,4.09.74.65,2.43,1.13,3.41,2.04,2.95,2.76,1.02,1.77,1.36,2.73-1.08.35-1.42-.72-2.04-.68-4.85.28-3.78,5.37-5.45,8.18-1.02-.87-1.79-.48-2.73-.68-1.17-.25-2.21-.49-3.41-.68-.87-.14-1.85.12-2.73,0-.7-.09-4.2-1.37-4.77-1.36-1.96.04-2.37.21-4.09.68.14-1.65-.65-1.85-2.04-2.04-.77-.11-2.74-.16-3.41,0,0-1.51-1.44-1.06-2.04-1.36-1.28-.63-2.28-1.47-3.41-2.04-1.06-.55-2.73-.98-3.41-1.36-1.14-.64-2.17-1.46-3.41-2.04-1.89-.89-2.48-3.01-6.13-3.41-6.15-5.86,18.85-4.28,22.83-4.09,3.33.16,1.54,1.7,5.79.68Z"/>
        <path class="cls-24" d="M135.22,166.94c.68.38,2.34.81,3.41,1.36-1.3.85-3.32,1.68-4.77,2.04-9.7,2.43-18.02,4.62-26.92,9.54-3.56,1.97-15.34,12.14-16.36,12.27-1.22.15-2.07-2.14-3.75-1.36,4.75-8.6,28.6-19.29,38.17-21.81.86-.23,1.47-.55,2.04-.68,1.02-.24,2.37-.5,3.41-.68,1.55-.27,3.25.06,4.77-.68Z"/>
        <path class="cls-81" d="M142.03,170.35c-7.35,3.49-15.09,6.07-22.15,10.22-3.16,1.85-16,12.7-17.04,12.95-.92.23-2.23.42-2.39-1.02-.11-.96,13.27-11.71,14.65-12.61,5.95-3.87,13.52-5.5,18.74-9.54,1.45-.36,3.47-1.19,4.77-2.04,1.12.58,2.13,1.41,3.41,2.04Z"/>
        <path class="cls-83" d="M149.53,173.76c-1.97.54-16.2,8.6-18.74,10.22-4.8,3.06-10.13,7.35-13.97,11.59-.83.14-4.38.18-4.77-.34,4.21-3.28,7.95-7.45,12.27-10.56,7.34-5.3,15.53-8.28,23.17-12.95,1.4.19,2.19.4,2.04,2.04Z"/>
        <path class="cls-81" d="M153.62,173.08c.49,1.7-1.56,1.38-2.04,2.04-5.01,3.01-10.97,4.64-16.02,7.5-3.63,2.06-16.61,12.6-18.74,12.95,3.84-4.24,9.17-8.52,13.97-11.59,2.54-1.62,16.77-9.68,18.74-10.22,1.72-.47,2.13-.64,4.09-.68Z"/>
        <path class="cls-87" d="M147.48,171.71c-7.64,4.67-15.83,7.65-23.17,12.95,1.02-3.84,16.71-12.22,19.76-12.95.66-.16,2.63-.11,3.41,0Z"/>
        <path class="cls-73" d="M363.52,144.45c-13-.67-25.91.88-38.85,1.36-7.1.27-14.01.21-21.13.68v-3.41c11.17-1.53,22.1-3.96,33.39-4.77,7.2-.52,12.92.35,19.42,0,1.3-.07,2.56.38,3.07-1.36,2.14,1.86,3.26,4.88,4.09,7.5Z"/>
        <path class="cls-42" d="M249.71,104.92l.68,1.36c-1.05.25-3.61,3.19-4.77,4.09-1.62-.13-3.76.72-3.41-1.36,1.5-7.42-5.82,1.04-7.5,2.73l-.68-.68c.55-.69,3.53-4.8,3.41-5.11-1.73-1.54-3.74-.68-5.45-1.02-1.26-.25-3.59-.85-4.77-.68-5.54.79-5.41,3.64-8.86,8.18-1.12-.09-2.28.06-3.41,0,1.98-4.08,5.25-7.98,0-8.86-2.31-.39-5.4.28-7.84,0,.65,1.21,1.16.77,1.02,2.73-.44-.05-1.3.08-1.36,0-.08-.09.18-1.42-1.02-2.04-.09-.05-.49.81-1.02.68-.11-.03-1.26-1.19-1.7-1.36-1.62,1.01-1.3,2.85-1.7,4.09h-3.41c.24-1.8,1.66-3.18-1.36-3.41v-.68c19.18.14,33.73.08,53.16,1.36Z"/>
        <path class="cls-73" d="M358.75,136.27c-5.4-3.4-15.49-1.83-21.81-1.36-10.48.77-22.21,3.23-32.71,4.77-.5-1.97,1-2.29,2.39-2.73,6.46-2.06,17.8-2.95,24.88-4.09,6.6-1.07,14.31-1.66,20.45-4.09,2.57,1.86,5.4,4.6,6.82,7.5Z"/>
        <path class="cls-77" d="M350.58,128.1c-6.61.7-13.21,1.63-19.76,2.73-7.03,1.17-14.09,2.97-21.13,4.09l-1.36-2.04c7.81-1.9,15.44-4.7,23.17-6.82,3.2-.87,7.29.33,8.86-3.41,3.47,1.61,7.05,3.3,10.22,5.45Z"/>
        <path class="cls-68" d="M274.93,109.01c-3.96,2.82-7.56,6.13-11.59,8.86-9.82,6.66-15.44,11.16-24.53,18.4-.15.12-1.95-.16-2.73.68-.81-.53-1.78-1-2.04-2.04,1.63-1.24,3.22-2.96,4.77-4.09,6.17-4.51,11.92-9.51,18.4-13.63,2.35-1.49,11.31-7.72,12.95-8.18s3.22-.06,4.77,0Z"/>
        <path class="cls-73" d="M328.09,117.87c-3.42,2.06-28.62,10.03-29.31,11.59-3.18.54-8.51,3.49-9.54,0,5.63-1.81,10.94-4.52,16.36-6.82,4.35-1.85,10-2.41,12.95-6.82,3.34.74,5.98.96,9.54,2.04Z"/>
        <path class="cls-38" d="M302.87,113.78c-2.86.93-9.32,5.26-13.63,6.82-2.42.87-7.42,1.19-9.54,2.04v-1.36c3.76-1.83,7.11-5.1,10.9-6.82,4.78-2.16,6.34-3.03,12.27-.68Z"/>
        <path class="cls-73" d="M337.63,121.28c-2.02,1.63-5.06,2.76-7.5,3.41-10.17,2.68-21.04,4.46-31.35,6.82.11-.61-.18-1.64,0-2.04,6.42-1.1,15.46-2.55,22.15-4.77,3.29-1.09,7.04-3.43,9.88-5.45,1.98.67,5.04,1.31,6.82,2.04Z"/>
        <path class="cls-30" d="M330.81,119.24c-2.84,2.02-6.59,4.36-9.88,5.45-6.69,2.22-15.72,3.67-22.15,4.77.68-1.56,25.88-9.53,29.31-11.59.79.24,2.22,1.19,2.73,1.36Z"/>
        <path class="cls-44" d="M251.76,110.38c-2.23,2.35-6.64,4.2-8.18,7.5-1.29.85-2.8,1.98-4.09,2.73-1.96,1.12-5.06,4.53-4.77,0,3.4-3.01,7.43-7.52,10.9-10.22,1.16-.9,3.72-3.84,4.77-4.09,5.92-1.4,3.95,1.36,1.36,4.09Z"/>
        <path class="cls-1" d="M281.06,111.06c-3.18,1.12-5.93,4.49-8.86,6.13-2.31,1.29-4.52,2.79-6.82,4.09l-2.04-3.41c4.02-2.73,7.63-6.04,11.59-8.86,2.02.08,5.84-.74,6.13,2.04Z"/>
        <path class="cls-1" d="M290.6,114.46c-3.79,1.72-7.15,4.98-10.9,6.82-.77.37-1.68.51-2.04.68-2.68.66-2-2.32-3.41-4.09,3.57-1.69,11-2.35,12.27-6.82,3.03.18,7.24-2.07,4.09,3.41Z"/>
        <path class="cls-86" d="M311.73,114.46c-2.23.81-3.81,2.43-6.13,3.41-4.93,2.09-10.65,2.93-15.67,4.77l-.68-2.04c4.31-1.55,10.77-5.88,13.63-6.82,4.6-1.5,5.17.21,8.86.68Z"/>
        <path class="cls-30" d="M358.75,136.27c.72.45.65.65.68.68-.5,1.74-1.77,1.29-3.07,1.36-6.5.35-12.22-.52-19.42,0v-3.41c6.32-.47,16.41-2.04,21.81,1.36Z"/>
        <path class="cls-30" d="M363.52,144.45c.13.41,1.26,1.1,1.36,2.73-8.84-.67-17.7-.82-26.58-.68-4.61.07-9.07.5-13.63.68v-1.36c12.94-.48,25.85-2.03,38.85-1.36Z"/>
        <path class="cls-49" d="M261.3,107.65c-.57,2.31-4.28,4.89-6.13,6.13-3.93,2.65-8.38,4.61-12.27,7.5.13-3.17-2.13.47-3.41-.68,1.29-.74,2.8-1.87,4.09-2.73,3.44-2.27,6.58-5.66,9.54-7.5,1.11-.69,2.72-2.46,3.75-2.73,1.09-.28,3.09.12,4.43,0Z"/>
        <path class="cls-1" d="M270.16,109.01c-1.64.46-10.6,6.69-12.95,8.18l-2.04-3.41c1.85-1.24,5.56-3.82,6.13-6.13,2.26-.2,7.57-.28,8.86,1.36Z"/>
        <path class="cls-30" d="M311.73,114.46c3.01.39,4.12.77,6.82,1.36-2.95,4.4-8.6,4.97-12.95,6.82v-4.77c2.32-.98,3.9-2.59,6.13-3.41Z"/>
        <path class="cls-90" d="M286.51,111.06c-1.27,4.46-8.69,5.13-12.27,6.82-.74.35-1.73.53-2.04.68v-1.36c2.93-1.64,5.68-5.02,8.86-6.13,3.34-1.17,3.22-.13,5.45,0Z"/>
        <path class="cls-30" d="M350.58,128.1c.29.2,1.09.48,1.36.68-6.13,2.43-13.85,3.02-20.45,4.09l-.68-2.04c6.55-1.09,13.15-2.02,19.76-2.73Z"/>
        <path class="cls-27" d="M340.35,122.64c-1.57,3.74-5.66,2.53-8.86,3.41l-1.36-1.36c2.44-.64,5.48-1.78,7.5-3.41.93.38,1.81.94,2.73,1.36Z"/>
        <path class="cls-66" d="M253.12,110.38c-2.96,1.83-6.1,5.22-9.54,7.5,1.54-3.3,5.95-5.14,8.18-7.5h1.36Z"/>
        <path class="cls-81" d="M167.25,175.8c-.28.48-1.1,3.04-1.36,3.41-.65.92-14.85,14.12-16.36,15.33-1.18.95-1.09,1.6-2.04-.34,5.63-8.85,9.26-10.3,16.36-17.04.89-.85,1.85-.44.68-2.04.93.2,1.71-.18,2.73.68Z"/>
        <path class="cls-35" d="M235.4,128.1l3.41,2.73c-1.55,1.13-3.14,2.85-4.77,4.09-7.15,5.46-33.34,22.79-34.76,30.33-.1.53,1.37.27,1.36.34-.21,4.26-.11,6.69.68,10.9-1.9,1.98.91,6.73-2.04,6.82-.15-.86.16-1.87,0-2.73-.41-2.13-.88-12.08-1.36-12.61-.44-.49-3.48.79-4.09-.68s3-6.49,4.09-8.52c.44-.05,1.01.1,1.36,0,4.06-1.15,16.45-21.2,23.17-22.15l-5.79,6.47c6.06-5.26,12.42-10.07,18.74-14.99Z"/>
        <path class="cls-68" d="M112.73,160.13c-16.83,3.92-28.83,10.18-44.3,17.04l-.68-2.73c6.58-2.66,13.13-5.72,19.76-8.18,3.83-1.42,6.86-2.82,10.9-4.09,6.92-2.17,18.62-7.57,24.53-2.39l-6.47,1.02c5.26-4.31-1.38-1.23-3.75-.68Z"/>
        <path class="cls-44" d="M68.43,177.16c-3.53,1.56-9.63,5.29-12.95,6.13-1.53.39-3.7,1.42-4.09-1.36,3.61-.71,12.13-5.79,16.36-7.5l.68,2.73Z"/>
        <path class="cls-65" d="M112.73,162.85c-.77,1.18-1.63.59-2.73.68.9-.21,1.73-.49,2.73-.68Z"/>
        <path class="cls-57" d="M124.31,166.26c-6.97,1.17-13.89,2.9-20.45,5.45l-.68-3.41c6.55-1.91,12.54-3.54,19.42-3.41.87.02,1.98-2.19,1.7,1.36Z"/>
        <path class="cls-32" d="M338.31,146.5c-1.28,7.61,2.97,2.76,4.77,6.13-.23-.02-.46.02-.68,0-11.46-.89-23.27-1.2-34.76-1.36-.13-3.37-8.05.64-8.18-2.73,8.41-.59,16.78-1.03,25.22-1.36,4.56-.18,9.02-.61,13.63-.68Z"/>
        <path class="cls-73" d="M342.4,154.67c5.43.62,11.04,2.16,16.36,3.41-1.91,2.48-3.09,2.96-5.45,4.77-.19-.01-.51-.05-.68,0-3.36-3.47-9.71-3.48-14.31-4.09l2.04-4.09c.66.07,1.38-.08,2.04,0Z"/>
        <path class="cls-39" d="M358.75,158.08c-5.32-1.25-10.93-2.78-16.36-3.41v-2.04c.23.02.46-.02.68,0,5.84.5,11.64.74,17.38,2.04,1.39,2.07-1.06,2.57-1.7,3.41Z"/>
        <path class="cls-87" d="M130.45,167.62c-1.04.18-2.39.45-3.41.68-.6-1.75,2.56-2,3.41-.68Z"/>
        <path class="cls-66" d="M86.15,163.53c.14.05-.32,2.1,1.36,2.73-6.63,2.46-13.19,5.52-19.76,8.18-4.23,1.71-12.74,6.79-16.36,7.5-4.8.94-3.48-.66-6.13-1.36,4.85-3.99,37.03-18.39,40.89-17.04Z"/>
        <path class="cls-66" d="M72.52,163.53c1.67,2.31-1.55.26-1.36,2.73-10.05,3.17-21.15,7.35-29.99,12.95-1.94-.63-4.29-1.3-6.13-2.04,7.67-2.8,17.79-9.38,25.22-11.59,2.81-.84,8.78-1.28,12.27-2.04Z"/>
        <path class="cls-44" d="M86.15,163.53c-3.86-1.35-36.04,13.05-40.89,17.04-1.95-.52-2.6-.88-4.09-1.36,8.84-5.6,19.93-9.78,29.99-12.95,4.45-1.4,10.39-3.9,14.99-2.73Z"/>
        <path class="cls-44" d="M59.57,164.9l.68.68c-7.43,2.21-17.54,8.78-25.22,11.59-1.56-.63-2.67-1.38-4.09-2.04,8.79-4.71,18.9-7.57,28.62-10.22Z"/>
        <path class="cls-80" d="M23.45,171.03c-.21-.12-1.27-.18-2.04-.68l20.79-5.45-18.74,6.13Z"/>
        <path class="cls-89" d="M307.64,151.27c11.49.16,23.3.48,34.76,1.36v2.04c-.66-.08-1.38.07-2.04,0-11.93-1.28-24.81-1.88-36.8-2.04-9.56-.13-19.09,0-28.62.68-.96.07-11.59.44-11.59,1.02,3.77,1.36,7.69,1.04,11.59,1.02,1.44,0,3.83-.75,6.13-.68v2.04c-6.59-.65-20.26-1.77-26.24-.68-.98.18-2.39-.37-1.36,1.36,12.55-.21,24.82.97,37.14,2.73,6.27.89,11.59,2.02,17.72,3.41,8.83,1.99,19.43,3.25,26.58,8.86-.18.08-1.13,1.11-3.41,2.04-5.09-4.69-12.66-5.1-19.08-6.82-12.67-3.38-25.7-7.02-38.85-8.18-1.67-.15-15.69-1.66-15.67.34,4.88,1.87,10.34.77,15.67,1.7,11.41,2,26.9,6.73,38.17,10.22,3.96,1.23,10.33,2.17,12.95,5.45-.99.33-1.6.86-3.41,1.36-7.69-4.04-16.85-6.59-25.22-8.86-16.38-4.44-32.8-7.69-49.75-8.86.6-1.38.6-5.15,1.02-5.45,12.49-1.51,26-4.3,38.51-4.77,7.33-.28,14.53.58,21.81.68Z"/>
        <path class="cls-38" d="M303.55,156.72c4.62.57,9.05,1.18,13.63,2.04,2.04.38,4.11.92,6.13,1.36,7.38,1.62,16.38,2.81,22.49,7.5-1.22.7-1.66,1.12-3.41,2.04-7.43-2.18-16.03-6.66-23.51-8.18-3.62-.73-8.85-.28-11.25-.68-4.76-.8-11.94-2.25-16.36-2.73-3.4-.36-6.77-1.02-10.22-1.36v-2.04c7.99.22,14.65,1.09,22.49,2.04Z"/>
        <path class="cls-1" d="M342.4,169.67c-3.47,1.83-5.99,2.04-7.5,2.73-7.15-5.61-17.75-6.87-26.58-8.86l-.68-2.73c2.39.4,7.63-.05,11.25.68,7.48,1.51,16.08,6,23.51,8.18Z"/>
        <path class="cls-66" d="M321.27,178.53c-3.41.94-4.89,2.99-8.86,2.04-4.39-1.05-12.38-9.25-18.4-8.86.63-2.38,1.17-.59,2.04-2.04,8.36,2.27,17.53,4.82,25.22,8.86Z"/>
        <path class="cls-71" d="M331.49,174.44c-2.52,1.04-4.11,1.83-6.82,2.73-2.62-3.28-8.99-4.22-12.95-5.45l.68-4.09c6.42,1.71,14,2.12,19.08,6.82Z"/>
        <path class="cls-34" d="M350.58,164.9c-1.63.88-3.17,1.81-4.77,2.73-6.11-4.68-15.11-5.88-22.49-7.5-.32-1.99,1.86-1.4,3.07-1.36,7.73.24,17.93,1.33,24.19,6.13Z"/>
        <path class="cls-62" d="M338.31,158.76c4.6.61,10.96.62,14.31,4.09-.14.04-.8,1.38-2.04,2.04-6.26-4.81-16.46-5.89-24.19-6.13-1.2-.04-3.39-.62-3.07,1.36-2.03-.45-4.1-.98-6.13-1.36,1.45-2.31,8.26-1.53,10.56-1.36,3.38.24,7.16.91,10.56,1.36Z"/>
        <g>
          <path class="cls-4" d="M298.78,108.33c-.33-.52-1.44-1.95-1.02-2.73.82.54,2.84,1.19,3.75,1.36,15.1,2.81,47.04,11.82,57.93,22.49,1.64,1.61,6.15,7.85,6.82,9.88,1.14,3.46-.49,7.87,2.04,10.56-1.28,2.58-3.59,4.67-5.45,6.82-1.27-3.84,2.33-4.82,2.04-9.54-.1-1.63-1.23-2.31-1.36-2.73-.83-2.61-1.95-5.63-4.09-7.5-.04-.03.04-.23-.68-.68-1.42-2.9-4.25-5.63-6.82-7.5-.27-.2-1.07-.48-1.36-.68-3.17-2.15-6.75-3.85-10.22-5.45-.91-.42-1.8-.98-2.73-1.36-1.78-.73-4.83-1.37-6.82-2.04-.5-.17-1.93-1.12-2.73-1.36-3.56-1.09-6.2-1.31-9.54-2.04-2.69-.59-3.8-.98-6.82-1.36-3.69-.47-4.26-2.18-8.86-.68-5.93-2.35-7.49-1.48-12.27.68,3.15-5.47-1.06-3.22-4.09-3.41-2.23-.13-2.11-1.17-5.45,0-.29-2.78-4.11-1.96-6.13-2.04-1.55-.06-3.18-.45-4.77,0-1.29-1.65-6.6-1.56-8.86-1.36-1.34.12-3.34-.28-4.43,0-1.03.26-2.64,2.04-3.75,2.73h-1.36c2.58-2.73,4.56-5.49-1.36-4.09l-.68-1.36c17.03,1.12,34.61,1.91,51.11,4.43-.39-1.08-1.98-.93-2.04-1.02Z"/>
          <path class="cls-63" d="M261.98,34.05l40.89,31.35c-.67-.26-7.24-1.23-9.54-2.04.68-4.1-3.79-6.03-4.77-1.36-3.68-1.83-7.64-6.29-10.9-8.86-3.74-5.25-5.95-1.17-4.09,3.41-4.84-5.34-1.41-3.88-9.54-8.18l1.36-2.04c.72.39,1.6,1.39,1.7,1.36,4.97-1.44-6.35-12.7-7.16-12.95l-.34-2.04,2.39,1.36Z"/>
          <path class="cls-53" d="M6.41,126.05c-.3,6.84,0,4.33,3.41,4.77.52.07,2.1.46,2.73.68-4.53,3.91-9.01,7.33-12.27,12.27-.81-5.95.25-11.92,2.04-17.72,2.02,1.05,2.67.19,4.09,0Z"/>
          <path class="cls-15" d="M24.13,125.37c-7.68,6.69-17.67,11.14-20.45,21.81-.44.17-1.6-1.71-2.04,0-.14-.57-1.27-2.7-1.36-3.41,3.26-4.93,7.73-8.36,12.27-12.27,1.85-1.59,4.87-4.05,6.82-5.45,1.16.51,3.82-.31,4.77-.68Z"/>
          <path class="cls-2" d="M370.34,144.45c-.56,1.93-1.14,3.63-2.04,5.45-2.54-2.69-.91-7.11-2.04-10.56-.67-2.03-5.17-8.27-6.82-9.88l.68-1.36c5.64,5.28,7.59,9.15,10.22,16.36Z"/>
          <path class="cls-33" d="M225.86,10.87l2.04,7.16c-.42,2.18-5.77-1.73-6.13-2.39-2.28-4.13.5-3.44,2.04-6.13.79.35,1.74,1.22,2.04,1.36Z"/>
          <path class="cls-31" d="M223.81,93.34c.23-.01.45.01.68,0,3.23,3.71,11.35,1.07,16.7,1.36,7.17.4,16.22,1.83,23.51,2.73,6.28.78,12.42.14,17.72,4.09-6,.07-13.93-1.5-21.47-2.04-36.76-2.66-75.96-3.94-112.79-2.04-29.13,1.5-73.6,5.41-100.52,15.67-8,3.05-15.96,9.33-23.51,12.27-.95.37-3.61,1.19-4.77.68,50.15-36.24,144.65-29.78,204.46-32.71Z"/>
          <path class="cls-33" d="M249.03,61.99c.02.6.14,1.64,0,2.04-2.4,7.19-26.68-3.38-13.29-10.9,5.74-3.22,13.12,3.19,13.29,8.86Z"/>
          <path class="cls-33" d="M193.14,73.57c-3.06,4.26-.73,11.89-10.22,7.5-7.52-3.48-5.82-13.68,1.7-12.95,2.42.24,5.5,5.23,8.52,5.45Z"/>
          <path class="cls-33" d="M105.91,72.21c3.4,2.32,1.65,3.71,0,6.47-2.06,3.44-6.45,8.35-10.56,7.16-7.41-2.15.05-10.59,3.07-13.63,2.83.04,4.34-2.16,7.5,0Z"/>
          <path class="cls-33" d="M144.08,83.8c-8.63,1.14-19.19,7.68-9.54-8.18,7.33-.94,13.97-1.84,9.54,8.18Z"/>
          <path class="cls-33" d="M168.61,86.52c-.88,4.68-12.99,2.16-12.95-2.73.11,0,0-1.95,1.02-2.04,3.63-.34,13.01-1,11.93,4.77Z"/>
          <path class="cls-33" d="M252.44,81.07c2.18,2.89,12.52,5.43,8.18,8.18-2.02,1.28-11.07-.66-11.93-2.04-1.37-2.22-.85-9.07,3.75-6.13Z"/>
          <path class="cls-13" d="M259.93,34.73c.81.25,12.13,11.5,7.16,12.95-.1.03-.98-.97-1.7-1.36-3.42-1.85-16.51-15.05-5.45-11.59Z"/>
          <path class="cls-33" d="M253.8,45.63c.27.18,2.67,3.45,2.73,3.75.73,3.76-1.3,2.87-1.36,3.07-3.89-.86-13.12-4.13-9.88-8.86.76-.32,7.62,1.43,8.52,2.04Z"/>
          <path class="cls-88" d="M88.87,70.85c-2.18,2.28-10.67,5.38-9.54-1.36,3.41-6.29,15.73-5.08,9.54,1.36Z"/>
          <path class="cls-33" d="M206.78,61.99c3.89,7.35-3.84,9.12-6.82,5.45-2.82-3.47,3.97-10.83,6.82-5.45Z"/>
          <path class="cls-33" d="M220.41,60.62c-1.74,3.04-4.49,4.42-8.18,2.73-1.12-.52-2.25-3.81-.34-4.77l8.52,2.04Z"/>
          <g>
            <path class="cls-31" d="M261.98,34.05l-2.39-1.36.34,2.04c-11.06-3.46,2.03,9.74,5.45,11.59l-1.36,2.04c-2.13-1.13-8.78-5.62-10.22-2.73-.9-.62-7.76-2.37-8.52-2.04-3.24,4.73,5.99,8,9.88,8.86-.9,2.63-3.86,4.29.68,4.77v2.73c-5.16-1.63-1.32.29-6.82,2.04-.17-5.67-7.55-12.08-13.29-8.86-13.39,7.53,10.89,18.09,13.29,10.9,7.64,4.45-2.21,9.59,3.41,17.04-4.59-2.94-5.12,3.91-3.75,6.13.85,1.38,9.91,3.33,11.93,2.04,2.58,1.48,3.75,5.26,4.09,8.18-7.29-.9-16.34-2.33-23.51-2.73-5.35-.3-13.47,2.34-16.7-1.36,1.74-.08,6.15,2.18,8.18-.34.42-1.61-17.4-12.48-8.86.34-59.81,2.93-154.3-3.53-204.46,32.71-1.94,1.4-4.97,3.86-6.82,5.45-.63-.22-2.2-.61-2.73-.68,1.79-1.66-.07-5.82-1.7-6.13-.2-.04-.85,1.25-1.7,1.36-1.42.19-2.07,1.05-4.09,0,9.55-30.78,51.59-51.47,76.33-68.83l6.82,5.79c.67,1.79-5.51,2.76-6.13,6.47-1.13,6.74,7.36,3.64,9.54,1.36,2.51-.95,6.76,2.69,7.16,2.73.33.03.53-1.39,2.39-1.36-3.02,3.04-10.47,11.48-3.07,13.63,4.11,1.2,8.5-3.71,10.56-7.16,1.65-2.76,3.4-4.15,0-6.47,3.87-1.94,10.14-.37,14.99-.68,1.4-.09,1.09.48,3.41,0,.67,2.49,3.59,1.24,3.75,1.36.62.5,2.72,4.76,3.41,4.77.27,0,1.11-1.79,3.07-2.04-9.65,15.86.91,9.32,9.54,8.18,3.42-.45,8.47.26,11.59,0-.04,4.89,12.07,7.41,12.95,2.73,5.55.02,10.58-1.24,14.31-5.45,9.49,4.39,7.17-3.24,10.22-7.5,1.09-1.52,5.84-3.42,6.82-6.13,2.98,3.67,10.7,1.9,6.82-5.45,4.01-3.76,2.28.95,5.45,1.36,3.69,1.7,6.44.31,8.18-2.73.69-1.21,1.54-4.7,2.73-6.47,2.48-3.72,7.68-5.23,6.82-11.25,3.4,2.85,6.67,3.34,4.09-2.04,5.45-.82,6.49.58,11.59-1.36,1.54-.59,2.94.83,4.09-2.39-.53-2.86-3.97-3.03-4.77-3.75-1.45-1.31-2.86-1.12-2.73-4.77,0-.11.6-1.87.68-2.04.9-1.98,2.99-2.39,4.09-4.09,5.19,3.34,10.66,7.16,14.99,11.59Z"/>
            <g>
              <path class="cls-33" d="M58.54,83.11c2.9-.61,5.91,1.23,8.86.68,5.99,2.64-12.71,18.22-14.99,17.72-6.17-4.44.43-17.2,6.13-18.4Z"/>
              <path class="cls-33" d="M20.38,104.92c14.49-3.72,4.98,14.06-1.36,12.95-7.67-1.35-3.15-11.79,1.36-12.95Z"/>
              <path class="cls-33" d="M208.48,76.98c1.09-.14,4.86,2.93,5.11,3.75,4.43,14.38-17.95,8.3-5.11-3.75Z"/>
              <path class="cls-33" d="M224.15,68.8c.98-.16,7.72,5.1,7.84,6.47.85,9.81-17.11,1.74-7.84-6.47Z"/>
              <path class="cls-33" d="M50.37,79.03c9.96-1.24-6.65,12.66-10.56,7.84-2.74-3.38,6.42-4.82,7.16-5.11.49-.19,3.19-2.7,3.41-2.73Z"/>
              <path class="cls-33" d="M75.58,64.71l1.7,1.02c-.09,4.79-15.04,10.78-12.61,3.75,2.75-3.77,6.93-3.31,10.9-4.77Z"/>
              <path class="cls-33" d="M111.7,85.16c2.65,1.57,11.38-1.04,10.56,3.07-.71,3.59-16.85,4.69-10.56-3.07Z"/>
              <path class="cls-33" d="M224.49,93.34c-.23.01-.45-.01-.68,0-8.54-12.82,9.28-1.95,8.86-.34-2.03,2.52-6.44.26-8.18.34Z"/>
              <path class="cls-88" d="M77.63,90.61c8.96-3.32,4.39,6.89,1.36,7.5-5.32,1.07-4.28-6.41-1.36-7.5Z"/>
              <path class="cls-33" d="M245.62,39.5c-1.94-2.34-3.18-3.37-.68-6.13.8.72,4.24.89,4.77,3.75-1.15,3.21-2.55,1.8-4.09,2.39Z"/>
              <path class="cls-33" d="M192.8,87.2c6.89-3.09,5.59,6.45.68,4.77-1.11-.38-2.62-3.9-.68-4.77Z"/>
              <path class="cls-33" d="M37.42,94.02c3.05.41.6,6.93-2.73,6.13-4.19-1,1.65-6.28,2.73-6.13Z"/>
              <path class="cls-88" d="M9.82,130.82c-3.42-.44-3.71,2.07-3.41-4.77.85-.12,1.51-1.4,1.7-1.36,1.63.31,3.5,4.47,1.7,6.13Z"/>
              <path class="cls-33" d="M182.58,86.52c4.05-1.75,3.62,4.78,0,3.41-1.37-.52-1.4-2.8,0-3.41Z"/>
              <path class="cls-36" d="M242.55,73.57c2.07-.5,2.25,3.87.68,4.09-.83.11-2.9-3.55-.68-4.09Z"/>
              <path class="cls-19" d="M237.78,73.57c.73-.16,3.69,1.55,3.07,2.39-2.14,1.66-5.34-1.89-3.07-2.39Z"/>
              <path class="cls-12" d="M172.36,89.93c3.81-.77.62,4.06-1.02,1.7-.32-.46.71-1.64,1.02-1.7Z"/>
              <path class="cls-91" d="M44.23,101.52c.08,0,1.38.99.68,1.36-1.75.93-1.97-1.22-.68-1.36Z"/>
            </g>
          </g>
          <path class="cls-33" d="M180.2,46.31c.14.65-1.17,12.65-1.36,13.29-.5,1.65-6.92,4.03-8.86,2.04-3.06-3.14-1.22-6.75,0-9.88,1.45-3.72,8.2-14.59,10.22-5.45Z"/>
          <path class="cls-33" d="M145.44,47.68c-5.29,5.52-12.52,5.64-10.22-2.73,1.56-5.67,21.45-9,10.22,2.73Z"/>
          <path class="cls-33" d="M161.11,51.08c5.14,9.73-6.27,4.29-7.84,4.77-1.04.32-7.55,10.53-9.2,1.02,1.08-1.65,2.67-2.11,4.09-3.07,3.34-2.25,10.65-7.08,12.95-2.73Z"/>
          <path class="cls-33" d="M124.99,47.68c.28.56.81,1.04.68,1.7-7.23,8.11-10.48,6.94-12.95-3.41.25-.7,2.58-1.46,3.41-1.7,3.12-.92,7.38.43,8.86,3.41Z"/>
          <g>
            <path class="cls-48" d="M246.98,22.46c-1.1,1.7-3.19,2.11-4.09,4.09-1.87-.43-4.69-7.32-5.11-7.5-3.53-1.48-12.46,13.21,4.43,9.54-.13,3.65,1.28,3.46,2.73,4.77-2.5,2.77-1.26,3.79.68,6.13-5.1,1.94-6.13.55-11.59,1.36-.13-.27-3.48-4.36-4.43-4.09-3.4,2.7-2.63,3.64.34,6.13.87,6.01-4.34,7.53-6.82,11.25-1.18,1.78-2.03,5.27-2.73,6.47l-8.52-2.04c-1.91.96-.78,4.25.34,4.77-3.18-.41-1.44-5.12-5.45-1.36-2.85-5.38-9.64,1.98-6.82,5.45-.98,2.72-5.73,4.62-6.82,6.13-3.02-.22-6.1-5.22-8.52-5.45-7.53-.73-9.22,9.47-1.7,12.95-3.73,4.21-8.76,5.47-14.31,5.45,1.09-5.77-8.29-5.11-11.93-4.77-1.02.1-.91,2.04-1.02,2.04-3.11.26-8.16-.45-11.59,0,4.42-10.02-2.22-9.12-9.54-8.18-1.95.25-2.79,2.05-3.07,2.04-.69-.01-2.78-4.27-3.41-4.77-.16-.13-3.08,1.12-3.75-1.36,3.25-.67,10.75-5.47,9.54-9.2-1.73-5.33-15.36,4.23-12.95,9.2-4.85.32-11.12-1.26-14.99.68-3.15-2.16-4.67.04-7.5,0-1.86-.03-2.06,1.4-2.39,1.36-.4-.04-4.65-3.68-7.16-2.73,6.19-6.45-6.13-7.65-9.54-1.36.62-3.71,6.8-4.69,6.13-6.47l-6.82-5.79c9.92-6.96,19.98-13.63,29.99-20.45l1.36,1.36c-1.23.19-4.12.95-3.07,2.73l5.79-1.36c1.44,1.65,1.95,3.28,3.41,4.77-.83.24-3.16,1-3.41,1.7,2.47,10.35,5.72,11.52,12.95,3.41.13-.67-.4-1.14-.68-1.7,2.9-4.01,6.95.58,10.22-2.73-2.3,8.37,4.94,8.24,10.22,2.73,2.5,2.17,5.23,3.06,2.73,6.13-1.42.96-3.01,1.42-4.09,3.07,1.65,9.51,8.16-.7,9.2-1.02,1.57-.48,12.97,4.96,7.84-4.77,3.69-2.15,5.48-1.42,8.86.68-1.22,3.13-3.06,6.75,0,9.88,1.94,1.99,8.36-.4,8.86-2.04.2-.64,1.51-12.64,1.36-13.29,2.1-1.51,5.45-1.51,5.45-4.77,1.21.08,1.74-.04,2.73-.68,2.74,7.07,9.93-3.37,11.59-4.77.36-.31,5.78-.39,5.45-4.77,8.42-.87,6.4-1.27,10.22-8.86,1.39.8,2.24,1.22,3.41-.34.83-1.27.41-2.75.68-3.75.32-1.21-.38-2.87,2.04-2.73.36.66,5.72,4.56,6.13,2.39l-2.04-7.16c7.21,3.39,14.45,7.28,21.13,11.59Z"/>
            <g>
              <path class="cls-33" d="M124.31,71.53c-2.32.48-2.01-.09-3.41,0-2.42-4.97,11.22-14.53,12.95-9.2,1.21,3.73-6.29,8.53-9.54,9.2Z"/>
              <path class="cls-33" d="M242.9,26.55c-.08.18-.68,1.94-.68,2.04-16.89,3.67-7.96-11.02-4.43-9.54.42.18,3.24,7.06,5.11,7.5Z"/>
              <path class="cls-33" d="M234.04,40.86c2.58,5.38-.69,4.89-4.09,2.04-2.97-2.49-3.74-3.43-.34-6.13.95-.27,4.3,3.82,4.43,4.09Z"/>
              <path class="cls-33" d="M205.75,41.54c2.66-.5,9.08,10.34,4.09,11.59-4.14,1.04-9.68-9.16-4.09-11.59Z"/>
              <path class="cls-33" d="M160.77,64.71c8.29-1,3.65,10.07-2.04,8.86-4.57-.97-1.96-8.38,2.04-8.86Z"/>
              <path class="cls-33" d="M213.25,29.96c.62-.12,1.39.08,2.04,0,10.6,11.21-6.44,11.45-5.11,3.75.09-.54,2.61-3.66,3.07-3.75Z"/>
              <path class="cls-33" d="M91.26,57.9c6.51-.47,1.26,6.38-3.41,4.77-1.87-1.88,2.1-4.68,3.41-4.77Z"/>
              <path class="cls-88" d="M194.17,47.68c1.29-.47,5.68,4.42,3.41,6.13-3.36,2.53-6.55-5-3.41-6.13Z"/>
              <path class="cls-33" d="M220.75,44.27c4.79-1.66,7.65,6,2.04,3.41-.41-.19-3.04-2.47-2.04-3.41Z"/>
              <path class="cls-33" d="M110,38.13c4.9-.77,2.58,1.19,2.73,1.36l-5.79,1.36c-1.05-1.78,1.83-2.53,3.07-2.73Z"/>
              <path class="cls-33" d="M145.78,66.08c2.98-1.14,3.11,2.74,1.36,3.41-2.98,1.14-3.11-2.74-1.36-3.41Z"/>
              <path class="cls-33" d="M104.89,53.81c1.54-.18,2.5,3.17.68,3.41-.75.1-2.72-3.17-.68-3.41Z"/>
              <path class="cls-72" d="M109.66,59.94c.26-.19,2.74-.36,2.39,1.02-1.17,1.02-3.9.06-2.39-1.02Z"/>
            </g>
          </g>
          <path class="cls-63" d="M282.42,101.52c2.67-.03,4.33-1.3,6.47-1.36.93-.03,11.66,2.95,15.33,4.09l-2.73,2.73c-.91-.17-2.93-.82-3.75-1.36-.42.78.69,2.21,1.02,2.73-1.42-.7-3.63-1.77-5.11-2.04-35.72-6.59-82.41-7.41-118.93-6.82-8.43.14-16.82.92-25.22,1.36l-1.36-3.41c36.83-1.9,76.03-.62,112.79,2.04,7.54.55,15.47,2.11,21.47,2.04Z"/>
          <path class="cls-46" d="M360.12,128.1l-.68,1.36c-10.89-10.67-42.83-19.68-57.93-22.49l2.73-2.73c15.16,4.69,44.76,13.44,55.88,23.85Z"/>
          <path class="cls-33" d="M277.65,53.13c4.09,5.74,1.34,9.41-4.09,3.41-1.86-4.58.35-8.66,4.09-3.41Z"/>
          <path class="cls-41" d="M293.33,63.35c-1.14-.41-2.56-.26-4.77-1.36.98-4.67,5.45-2.73,4.77,1.36Z"/>
          <g>
            <path class="cls-53" d="M264.02,48.36c8.13,4.3,4.71,2.84,9.54,8.18,5.43,6,8.18,2.34,4.09-3.41,3.26,2.57,7.23,7.03,10.9,8.86,2.22,1.1,3.63.96,4.77,1.36,2.3.82,8.87,1.78,9.54,2.04,22.35,8.71,50.11,33.23,64.06,52.82,6.24,8.77,6.34,16.19,3.41,26.24-2.64-7.21-4.58-11.08-10.22-16.36-11.12-10.41-40.73-19.17-55.88-23.85-3.68-1.14-14.41-4.11-15.33-4.09-2.15.06-3.8,1.33-6.47,1.36-5.3-3.95-11.44-3.31-17.72-4.09-.34-2.92-1.51-6.69-4.09-8.18,4.34-2.75-6-5.29-8.18-8.18-5.62-7.44,4.23-12.59-3.41-17.04.14-.41.02-1.44,0-2.04,5.49-1.76,1.65-3.67,6.82-2.04.75.24,5.26,3.12,6.13,1.7-.91-6.03-3.25-4.13-6.13-4.43-4.54-.48-1.58-2.14-.68-4.77.07-.2,2.09.7,1.36-3.07-.06-.3-2.46-3.57-2.73-3.75,1.44-2.9,8.09,1.6,10.22,2.73Z"/>
            <g>
              <path class="cls-88" d="M255.84,59.94v-2.73c2.88.3,5.22-1.6,6.13,4.43-.87,1.42-5.38-1.47-6.13-1.7Z"/>
              <path class="cls-33" d="M320.93,86.52c5.51-1.42,17.35,7.66,21.47,11.25-.03,4.04-15.83,3.88-18.74,2.39-1.54-.79-7.52-12.39-2.73-13.63Z"/>
              <path class="cls-13" d="M298.44,79.03c14.43-2.1,15.68,14.18,1.36,12.27-8.81-1.18-8.8-11.19-1.36-12.27Z"/>
              <path class="cls-13" d="M311.39,70.85c2.76.91,15.14,11.5,11.59,12.95-4.13,1.68-13.29-6.81-13.29-11.25l1.7-1.7Z"/>
              <path class="cls-13" d="M271.18,74.26c2.11.21,8.83,6.73,2.04,8.18-9.57,2.04-7.41-8.73-2.04-8.18Z"/>
              <path class="cls-13" d="M276.63,89.25c1.39-.3,15.72,5.21,8.18,7.5-6.4,1.94-12.89-6.49-8.18-7.5Z"/>
              <path class="cls-13" d="M357.73,115.83c1.72-.6,14.67,10.22,2.73,8.18-4.72-.81-4.73-7.48-2.73-8.18Z"/>
              <path class="cls-13" d="M278.68,67.44c2.71-1.42,7.17,2.56,6.47,4.43-.1.26-4.86,2.51-5.11,2.39-.35-.16-3.71-5.58-1.36-6.82Z"/>
              <path class="cls-13" d="M308.66,98.79c2.07-.58,8.75,2.44,8.52,4.43-.53,4.49-10.11-.8-8.52-4.43Z"/>
              <path class="cls-13" d="M347.51,105.61c2.51-.55,3.43,1.58,5.11,3.07l-1.7,2.39-5.79-2.39c-.15-.8,2.13-3.01,2.39-3.07Z"/>
              <path class="cls-13" d="M346.83,115.83c.98-.31,4.2-.04,3.75,1.7-.69,2.64-6.75-.75-3.75-1.7Z"/>
              <polygon class="cls-13" points="286.17 83.11 286.51 84.14 285.49 84.48 285.15 84.14 286.17 83.11"/>
            </g>
          </g>
          <g>
            <path class="cls-45" d="M214.95,6.1c-1.77,1.59-6.68-.44-8.52.68-6.58,4.02,5.63,2.71,6.13,2.73.28,0,1.73,1.54,3.41,1.36,2.23-.24.19-3.83,2.39-3.41,1.87.71,3.58,1.21,5.45,2.04-1.54,2.7-4.33,2-2.04,6.13-2.42-.14-1.72,1.52-2.04,2.73-7.78-8.03-9.7.85-4.09,4.09-3.82,7.59-1.8,7.99-10.22,8.86-.07,0,.21-1.39-.34-1.36-4.21.2-8.85,1.38-5.11,6.13-1.66,1.4-8.85,11.84-11.59,4.77-.11-.27,1.11-3.42-.68-5.79-4.81-6.38-7.64,6.12-2.04,6.47,0,3.26-3.35,3.26-5.45,4.77-2.03-9.14-8.77,1.73-10.22,5.45-3.38-2.11-5.17-2.83-8.86-.68-2.3-4.35-9.61.47-12.95,2.73,2.51-3.08-.23-3.97-2.73-6.13,11.23-11.72-8.66-8.4-10.22-2.73-3.27,3.3-7.33-1.28-10.22,2.73-1.48-2.97-5.74-4.33-8.86-3.41-1.46-1.49-1.97-3.12-3.41-4.77-.15-.17,2.18-2.13-2.73-1.36l-1.36-1.36c38.06-25.9,54.89-47.86,106.32-30.67Z"/>
            <g>
              <path class="cls-33" d="M214.95,6.1c1.56.52,2.24.92,3.41,1.36-2.19-.42-.16,3.17-2.39,3.41-1.68.18-3.13-1.35-3.41-1.36-.5-.02-12.72,1.29-6.13-2.73,1.84-1.12,6.75.91,8.52-.68Z"/>
              <path class="cls-33" d="M188.37,40.86c-.99.64-1.52.76-2.73.68-5.6-.36-2.76-12.85,2.04-6.47,1.79,2.37.58,5.52.68,5.79Z"/>
              <path class="cls-33" d="M219.72,18.37c-.27,1,.14,2.48-.68,3.75-1.17,1.56-2.01,1.14-3.41.34-5.61-3.24-3.7-12.12,4.09-4.09Z"/>
              <path class="cls-33" d="M205.41,31.32c.33,4.38-5.09,4.46-5.45,4.77-3.74-4.76.9-5.93,5.11-6.13.55-.03.27,1.37.34,1.36Z"/>
              <path class="cls-33" d="M135.56,21.78c13.66-3.1,1.77,13.18-6.13,8.86-4.66-2.54,4.53-8.5,6.13-8.86Z"/>
              <path class="cls-76" d="M167.59,29.27c8.33,1.29-2.43,17.85-6.13,17.04-4.82-1.06,4.68-11.24,5.79-13.29.28-.52-1.88-2.48.34-3.75Z"/>
              <path class="cls-33" d="M196.21,3.38c8.92-1.06,2,9.52-4.77,6.82-3.82-1.53,3.11-6.62,4.77-6.82Z"/>
              <path class="cls-33" d="M173.04,16.33c3.45-1.48,7.59,7.22,2.73,8.18-4.06.8-5.06-7.18-2.73-8.18Z"/>
              <path class="cls-33" d="M159.41,15.64c.62-.14,5.57.9,5.79,1.7-.68,5.71-10.06,3.42-10.22,2.04-.03-.29,4.15-3.69,4.43-3.75Z"/>
              <path class="cls-33" d="M200.98,17.01c1.81.75,7.39,1.18,7.16,3.75-2.08,5.63-9.48-2.52-7.16-3.75Z"/>
              <path class="cls-33" d="M151.23,30.64c1.28-.52,3.66,2.14,5.11,2.39l-1.7,3.75c-1.74-.76-6.61-4.85-3.41-6.13Z"/>
              <path class="cls-76" d="M168.95,7.47c1.65.52.95.94,1.02,2.39-2.36,1.05-5.54,2.61-8.18.68,0-.39,6.78-3.18,7.16-3.07Z"/>
              <path class="cls-33" d="M151.91,10.87c6.14-1.28,1.7,5.47-2.04,4.09-2.13-.79.7-3.81,2.04-4.09Z"/>
              <path class="cls-33" d="M175.77,2.01c1.25-.81,13.63,2.76.68,3.41-1.13-.58-1.5-2.88-.68-3.41Z"/>
              <path class="cls-33" d="M192.12,19.05c1.34-.22,3.31,2.58,2.04,3.41-2.16,1.41-4.19-3.06-2.04-3.41Z"/>
              <path class="cls-33" d="M186.67,4.74c1.75-.93,1.97,1.22.68,1.36-.08,0-1.38-.99-.68-1.36Z"/>
            </g>
          </g>
          <path class="cls-53" d="M148.16,97.43l1.36,3.41c-29.04,1.55-60.9,4.7-88.6,12.95-2.35.7-29.31,9.31-27.94,11.25l3.41,1.7c-2.06-.18-5.32-.5-6.82,1.36-.74-.12-2.25-1.38-2.39-1.36-.43.04-6.49,4.09-7.16,4.77-2.97.49-4.81,2.87-6.82,4.77-2.98,2.83-4.92,5.4-7.5,8.52-.77.93,1.63.96-2.04,2.39,2.78-10.67,12.77-15.12,20.45-21.81,7.55-2.94,15.51-9.21,23.51-12.27,26.92-10.27,71.4-14.18,100.52-15.67Z"/>
          <path class="cls-13" d="M298.78,108.33c.06.1,1.65-.06,2.04,1.02-16.5-2.52-34.08-3.31-51.11-4.43-19.43-1.28-33.97-1.22-53.16-1.36-6.79-.05-13.67-2.13-20.45-2.04l-1.36-2.04c36.52-.59,83.2.22,118.93,6.82,1.48.27,3.69,1.35,5.11,2.04Z"/>
          <path class="cls-15" d="M174.74,99.47l1.36,2.04c-13.2.17-29.61,1.72-42.25,4.77-6.56.21-14.82,1.52-21.81,2.04-5.51.41-11.98.11-17.38.68-11.15,1.19-22.68,5.42-33.74,4.77,27.69-8.25,59.56-11.4,88.6-12.95,8.4-.45,16.79-1.23,25.22-1.36Z"/>
        </g>
        <path class="cls-38" d="M330.13,124.69l1.36,1.36c-7.73,2.12-15.36,4.91-23.17,6.82-1.83.44-3.61.94-5.45,1.36-8.15,1.89-16.38,3.03-24.53,4.77s-20.68,2.9-27.6,5.45c-.78.29.97,1.47.34,1.7-11.92,4.53-23.74,11.22-35.44,15.33-.55.19-.81.5-1.36.68-.34-1.94.37-1.89,1.7-2.73,5.17-3.24,12.4-5.53,17.38-9.2-.49-1.29-23.16,8.9-23.85,12.61-1.4.38-2.74.98-4.09,1.36.9-2.67,4.91-5.26,7.16-6.82,20.88-14.48,61.06-20.14,86.21-25.9,10.31-2.36,21.18-4.13,31.35-6.82Z"/>
        <path class="cls-57" d="M289.24,129.46c1.03,3.49,6.36.54,9.54,0-.18.4.11,1.43,0,2.04-25.16,5.75-65.33,11.42-86.21,25.9-2.24,1.56-6.26,4.15-7.16,6.82-.57.16-1.49-.16-2.04,0,6.31-10.11,17.49-15.17,27.26-21.13l.68.68c-.75.46-4.34,2.33-4.09,3.07,9.68-1.76,19.04-5.68,28.62-8.52,10.77-3.19,23.14-5.56,33.39-8.86Z"/>
        <path class="cls-26" d="M278.33,139v2.04c-6.41,1.32-13.6,1.35-19.42,4.77,7.15-1.03,14.37-2.11,21.47-3.41v.68c-11.61,2.19-25.36,4.06-35.44,10.22-1.55.44-4.38,2.31-5.79,2.73-3.18.93-15.52.78-12.61,5.45-3.46.19-7.74,1.2-10.9,0,11.7-4.11,23.52-10.8,35.44-15.33.63-.24-1.12-1.42-.34-1.7,6.92-2.56,19.73-3.77,27.6-5.45Z"/>
        <path class="cls-75" d="M263.34,122.64l.68.68c-4.14,2.32-8.13,6.22-11.59,8.18-7.14,4.04-14.79,7.31-21.81,11.59-9.77,5.95-20.95,11.02-27.26,21.13-.32.09-2.03,1.26-2.73,1.36,0-.07-1.46.19-1.36-.34,1.41-7.54,27.6-24.86,34.76-30.33.27,1.04,1.23,1.51,2.04,2.04.09.06-.24,1.28.34,1.36.16.02,1.93-1.83,2.39-2.04,7.85-3.66,16.85-9.26,24.53-13.63Z"/>
        <path class="cls-26" d="M280.38,146.5v1.36c-8.65.99-17.82,2.53-26.24,4.77,10.56-1.12,21.11-1.84,31.69-2.73v.68c-12.51.47-26.02,3.26-38.51,4.77-.43.3-.42,4.07-1.02,5.45-.02.04-.8-.11-.68.68-6.26-.76-12.78-.34-19.08,0-2.92-4.67,9.42-4.52,12.61-5.45,1.41-.41,4.24-2.29,5.79-2.73,11.89-3.33,23.33-4.72,35.44-6.82Z"/>
        <path class="cls-65" d="M271.52,171.03v2.04c-2.56-.78-5.15-2.1-7.84-2.04-.8.46.59.87.34,1.36-.04.08-1.45-.36-1.36.68-5.91-2.71-16.77-6.72-23.17-6.82-.22-1.1,2.62-2.37,3.41-2.73,9.54,2.56,19.19,4.51,28.62,7.5Z"/>
        <path class="cls-35" d="M214.27,162.17c-1.31.43-3.56.35-4.77.68.7-3.7,23.37-13.9,23.85-12.61-4.98,3.67-12.21,5.96-17.38,9.2-1.33.84-2.04.78-1.7,2.73Z"/>
        <path class="cls-52" d="M112.04,108.33c-1.01,1.14.14,1.5,1.36,2.73l-4.09.34c1.48.62,2.79,1.47,4.09,2.39l-1.36,3.41c-4.21-2.14-9.44-6.57-13.63-4.77-1.07.46-2.19,1.39-2.04,2.73-1.06-.51-6.04-4.21-5.79-.68,5.28,1.3,8.91,4.83,13.97,6.82l-4.09,1.36c-6.71-2.68-13.68-8.06-20.45-7.84,5.48,4.49,13.24,7.92,19.76,10.56l-1.36,2.04c-8.41-3.67-16.67-7.49-24.88-11.59l25.22,12.95c1.99,2.22-6.53-.46-7.16-.68-9.42-3.41-19.03-9.7-29.99-9.88,1.95,1.66,27.85,8.89,27.26,10.22-.36.82-3.65-.49-2.39,1.7l5.79-.68c5.44,2.43,12.05,4.89,17.72,6.82,4.47,1.52,9.13,2.51,13.63,4.09v.68c-7.03-1.68-14.12-2.91-21.13-4.77-8.06-2.13-52.25-16.38-56.23-14.99-.53.19-1.56,1.43-.68,2.04l33.05,8.86c-1.16,2.72-.01,1.93.68,4.09-13.05-2.84-29.9-8.39-42.94-9.54l-3.41-1.7c-1.37-1.93,25.6-10.55,27.94-11.25,11.05.65,22.59-3.58,33.74-4.77,5.4-.58,11.87-.27,17.38-.68Z"/>
        <path class="cls-70" d="M36.4,126.73c13.03,1.15,29.89,6.7,42.94,9.54,2.57.56,4.91,1.45,7.5,2.04l-.68,2.04c-12.75-2.54-25.23-5.85-38.17-8.18-6.28-1.13-12.66-3.13-18.4-4.09,1.5-1.86,4.75-1.55,6.82-1.36Z"/>
        <path class="cls-52" d="M29.58,128.1c5.74.96,12.12,2.96,18.4,4.09l1.36,4.77c-10.18-1.72-20.54-4.77-31.01-3.41.15-.56,1.25-1.58,1.7-2.04.66-.68,6.73-4.73,7.16-4.77.14-.01,1.65,1.24,2.39,1.36Z"/>
        <path class="cls-26" d="M157.71,157.4c-1.18,1.05-2.34.42-3.41.68-2.28-2.92-8.03-2.17-11.25-2.73-.55-.09-.13-1.27-.68-1.36-1.47-.24-10.44.29-10.9,0-.96-.6.5-1.58.34-2.73-.03-.22.03-.46,0-.68,0-.06,1.02.07.68-1.02-.08-.25-2.18-1.37-2.73-1.7-3.93-2.43-5.94-2.49-10.22-3.41l2.04-1.36c14.63,4.26,22.6,7.14,36.12,14.31Z"/>
        <path class="cls-68" d="M75.24,159.45c-1.89-4.51,1.51-1.12,2.04-4.09,13.29-.75,26.49-2.17,39.87-1.36-11.51-2.08-24.66-1.99-36.46-.68-1.09-1.22-3.9-.68-5.45-.68v-.68c15.44.08,31.25-2.14,46.34,1.02-11.37,6.5-32.11-.04-42.94,4.09-.26.1,2.22,1.51-3.41,2.39Z"/>
        <path class="cls-47" d="M97.73,159.45c-5.78,1.98-18.16,2.55-25.22,4.09-3.49.76-9.46,1.21-12.27,2.04l-.68-.68c3.24-.88,6.16-2.02,9.54-2.73,10.08-2.12,20.04-3.42,30.33-4.09.56,1.37-1.18,1.18-1.7,1.36Z"/>
        <path class="cls-57" d="M97.73,159.45l.68,2.73c-4.04,1.27-7.07,2.67-10.9,4.09-1.68-.63-1.22-2.68-1.36-2.73-4.6-1.17-10.54,1.32-14.99,2.73-.18-2.47,3.03-.42,1.36-2.73,7.06-1.54,19.44-2.11,25.22-4.09Z"/>
        <path class="cls-25" d="M131.81,150.59c.03.22-.03.46,0,.68-15.61-1.67-31.35-1.48-47.02-2.04l.68-1.36c15.37,1.22,31.03-.02,46.34,2.73Z"/>
        <path class="cls-60" d="M77.29,155.36c-1.03.06-2.73-.09-4.09,0,.22-1.73,5.27-1.8,7.5-2.04,11.8-1.31,24.95-1.4,36.46.68-13.38-.81-26.58.61-39.87,1.36Z"/>
        <path class="cls-28" d="M86.15,140.36c.96.19,2.71,1.09,4.09,1.36l-.68,2.04c-9.43-1.28-18.6-3.26-27.94-4.77-4.08-.66-8.19-1.36-12.27-2.04l-1.36-4.77c12.93,2.33,25.42,5.64,38.17,8.18Z"/>
        <path class="cls-68" d="M119.54,144.45c4.29.92,6.29.98,10.22,3.41-13.05-3.09-26.38-3.52-39.53-6.13-1.38-.27-3.13-1.17-4.09-1.36l.68-2.04c11.12,2.53,21.93,3.82,32.71,6.13Z"/>
        <path class="cls-6" d="M114.09,135.59c18.94,6.1,33.93,12.37,50.43,23.85l-1.02,1.36c-1.78-1.41-3.81-2.36-5.79-3.41-13.52-7.17-21.49-10.05-36.12-14.31-6.51-1.9-13.26-2.96-19.76-4.77l.68-2.04c7.01,1.86,14.1,3.09,21.13,4.77,1.04.25,5.16,3.44,6.13,1.02-1.76-.98-4.43-1.11-6.13-1.7-4.5-1.58-9.16-2.57-13.63-4.09l.68-1.36c.67.23,2.01.23,3.41.68Z"/>
        <path class="cls-75" d="M137.94,117.87c.7.6,2.06.76,2.73,1.36,13.47,12.23,24.02,30.02,35.44,44.3-1.79.63-2.01-.16-2.73,2.04-.97-.91-2.67-1.39-3.41-2.04.15-1.99-.62-2.7-1.36-4.09-3.51-6.55-9.12-12.51-13.63-18.4-6.79-8.86-8.57-11.87-17.04-19.76-.07-.07-.62-1.3-.68-1.36-.8-1.28-1.28-2.21.68-2.04Z"/>
        <path class="cls-6" d="M127.72,132.18c7.47,3.12,15.88,6.87,22.49,11.59,5.47,3.91,10.84,10.62,16.02,14.99,1,.85.92,1.76,2.39.68.74,1.39,1.52,2.09,1.36,4.09-1.63-1.44-3.75-2.58-5.45-4.09-19.35-17.13-23.66-19.08-47.71-28.62l.68-1.36c2.3.95,7.44,1.56,10.22,2.73Z"/>
        <path class="cls-78" d="M336.95,134.91v3.41c-11.3.81-22.22,3.24-33.39,4.77-7.62,1.04-15.61,2.1-23.17,3.41-12.11,2.09-23.55,3.48-35.44,6.82,10.08-6.17,23.83-8.04,35.44-10.22,7.78-1.47,16-2.26,23.85-3.41,10.5-1.54,22.23-4,32.71-4.77Z"/>
        <path class="cls-68" d="M324.68,145.81v1.36c-8.44.33-16.8.78-25.22,1.36-4.5.31-9.14.99-13.63,1.36-10.58.89-21.13,1.61-31.69,2.73,8.42-2.24,17.59-3.78,26.24-4.77,7.72-.89,15.45-.85,23.17-1.36,7.12-.47,14.03-.42,21.13-.68Z"/>
        <path class="cls-66" d="M303.55,143.09v3.41c-7.72.51-15.46.48-23.17,1.36v-1.36c7.57-1.31,15.55-2.37,23.17-3.41Z"/>
        <path class="cls-28" d="M176.11,101.52c6.77-.09,13.65,1.99,20.45,2.04v.68c-.02.22.03.46,0,.68-2-1.79-4.72-.01-6.13,0-.14,0-.83-.99-2.73-.68-.91.15-2.79-.39-3.41.34.41,2.43.71,4.67.68,7.16-5.45.76-.54-4.63-4.09-6.82-2.1-1.3-4.83-.46-7.16-.68-1.36.96.84,5.61,1.02,6.82l-2.04.68c-1.75-6.34.26-11.14-9.54-5.45-2.09-3.28-3.82-.69-4.09-.68-2.8.12-4.65-.17-7.5.68-.87.26-1.94-.4-2.73,1.02,2.51,1.62,4.15,6.84,5.45,8.52l-1.36.68c-1.14-1.2-2.89-2.25-4.09-3.41-3.78-3.64-1.43-4.41-7.5-6.13-3.05-.86-3.64-.81-7.5-.68,12.64-3.05,29.05-4.6,42.25-4.77Z"/>
        <path class="cls-25" d="M208.14,106.29c-.25,3.5-1.02,6.9-2.04,10.22-2.41,7.82-8.74,15.64-7.84,24.53,4.12-7.99,7.55-16.35,11.25-24.53.7-1.56,2.06-3.07,2.73-4.77l2.04,1.36c-4.96,9.71-14.93,24.34-18.4,33.74-1.49,4.03-1.92,14.67-3.41,17.38-1.83.4-.77-4.63-.68-5.11,1.36-7.51,3.52-15.43,5.45-22.83,1.92-7.38,2.48-10.93,5.45-18.4,1.52-3.82,3.44-7.45,4.09-11.59.07.08.92-.05,1.36,0Z"/>
        <path class="cls-65" d="M245.62,110.38c-3.48,2.7-7.51,7.22-10.9,10.22-13.01,11.51-25.89,23.52-35.44,38.17-.35.1-.93-.05-1.36,0,10.71-19.91,29.23-33.47,44.3-49.75-.35,2.09,1.79,1.24,3.41,1.36Z"/>
        <path class="cls-87" d="M201.32,107.65c-.44,1.32-2.32,9.97-1.7,10.22,1.13-.49.83-1.71,1.02-2.04,3.52-.36.44.93,2.04,2.04-2.97,7.47-3.53,11.02-5.45,18.4h-4.77c1.38-9.27,2.87-16.19,4.77-25.22.23-1.09.53-2.32.68-3.41h3.41Z"/>
        <path class="cls-26" d="M218.36,112.42c-10.69,14.03-18.33,29.28-23.85,46-.65,1.96.3,7.32-3.41,7.16.09-.03,1.16-.98,1.36-1.36,1.49-2.71,1.92-13.35,3.41-17.38,3.48-9.4,13.44-24.03,18.4-33.74.02-.04.25.21.68-.68,1.12.06,2.29-.09,3.41,0Z"/>
        <path class="cls-49" d="M234.04,111.06c-4.09,5.18-11.77,10.85-16.36,16.36l-.68-1.36c2.51-3.38,4.92-6.88,7.5-10.22,2.66-3.45,6.22-6.51,7.5-10.9,1.71.34,3.72-.51,5.45,1.02.12.31-2.86,4.42-3.41,5.11Z"/>
        <path class="cls-66" d="M214.95,103.56c-1.28,2.59-1.68,5.51-2.73,8.18-.67,1.71-2.02,3.21-2.73,4.77h-3.41c1.03-3.32,1.79-6.73,2.04-10.22.14-1.96-.37-1.51-1.02-2.73,2.44.28,5.53-.39,7.84,0Z"/>
        <path class="cls-21" d="M231.99,104.92c-1.28,4.39-4.83,7.46-7.5,10.9-2.46.39-2.76-.32-4.09-2.04.11-.13-.11-.55,0-.68,2.11-2.47,6.44-5,6.82-8.86,1.18-.17,3.52.43,4.77.68Z"/>
        <path class="cls-87" d="M234.72,111.74c-7.59,7.6-14.32,16.42-22.15,23.85-.12-2.43,3.57-6.33,5.11-8.18,4.59-5.5,12.27-11.17,16.36-16.36l.68.68Z"/>
        <path class="cls-49" d="M227.22,104.24c-.37,3.86-4.71,6.39-6.82,8.86-.83-.46-1.03-.6-2.04-.68,3.45-4.53,3.32-7.39,8.86-8.18Z"/>
        <path class="cls-66" d="M206.78,106.29c-.65,4.14-2.57,7.77-4.09,11.59-1.61-1.12,1.48-2.4-2.04-2.04,1.66-2.89,3.65-7.54,4.09-10.9.53.13.93-.73,1.02-.68,1.21.63.95,1.96,1.02,2.04Z"/>
        <path class="cls-49" d="M204.73,104.92c-.44,3.36-2.43,8.02-4.09,10.9-.19.33.1,1.55-1.02,2.04-.61-.25,1.27-8.9,1.7-10.22.41-1.24.08-3.08,1.7-4.09.44.17,1.6,1.34,1.7,1.36Z"/>
        <path class="cls-89" d="M214.95,112.42c-.43.89-.66.64-.68.68l-2.04-1.36c1.04-2.66,1.44-5.59,2.73-8.18,5.25.88,1.98,4.78,0,8.86Z"/>
        <path class="cls-44" d="M197.92,107.65c-.15,1.09-.45,2.32-.68,3.41h-2.04c.5-2.05,1.07-4.03,1.36-6.13.03-.22-.02-.46,0-.68,3.02.23,1.61,1.61,1.36,3.41Z"/>
        <path class="cls-66" d="M331.49,132.87c-7.08,1.14-18.41,2.03-24.88,4.09-1.38.44-2.88.76-2.39,2.73-7.86,1.15-16.07,1.94-23.85,3.41v-.68c7.15-1.31,14.23-3.2,21.47-4.09.91-.49-.19-1.93-.68-2.04-1.14-.27-19.76,4.14-22.83,4.77v-2.04c8.15-1.74,16.39-2.88,24.53-4.77-.96,3.23,4.36,1.07,6.82.68,7.04-1.11,14.1-2.91,21.13-4.09l.68,2.04Z"/>
        <path class="cls-34" d="M308.32,132.87l1.36,2.04c-2.45.39-7.77,2.54-6.82-.68,1.85-.43,3.62-.92,5.45-1.36Z"/>
        <path class="cls-87" d="M255.16,113.78l2.04,3.41c-6.48,4.12-12.23,9.12-18.4,13.63l-3.41-2.73c2.31-1.8,4.84-4.84,7.5-6.82,3.88-2.89,8.34-4.85,12.27-7.5Z"/>
        <path class="cls-57" d="M263.34,117.87l2.04,3.41c-.74.42-1.52,1.06-2.04,1.36-7.69,4.37-16.68,9.97-24.53,13.63,9.09-7.24,14.72-11.74,24.53-18.4Z"/>
        <path class="cls-35" d="M238.81,136.27c-.46.21-2.23,2.07-2.39,2.04-.58-.08-.25-1.31-.34-1.36.78-.84,2.58-.56,2.73-.68Z"/>
        <path class="cls-89" d="M305.6,117.87v4.77c-5.41,2.3-10.73,5-16.36,6.82-10.25,3.3-22.62,5.67-33.39,8.86.28-1.24-.25-1.78-.68-2.73,2.16-.52,4.11-2,6.13-2.73,9.57-3.42,19.08-6.73,28.62-10.22,5.03-1.84,10.74-2.69,15.67-4.77Z"/>
        <path class="cls-6" d="M279.7,122.64c-5.94,2.4-12.76,5.79-18.4,8.86-2.3,1.25-4.71,2.43-7.16,3.41-.88.93,1,.63,1.02.68.43.95.96,1.48.68,2.73-9.58,2.84-18.94,6.76-28.62,8.52-.25-.74,3.34-2.6,4.09-3.07,6.5-4.02,15.49-8.27,22.49-11.59,7.83-3.7,15.96-6.46,23.85-10.22.36-.17,1.28-.31,2.04-.68v1.36Z"/>
        <path class="cls-66" d="M289.24,120.6l.68,2.04c-9.55,3.49-19.05,6.8-28.62,10.22v-1.36c5.64-3.07,12.46-6.46,18.4-8.86,2.12-.86,7.12-1.17,9.54-2.04Z"/>
        <path class="cls-6" d="M242.9,121.28c-2.65,1.97-5.19,5.02-7.5,6.82-6.32,4.92-12.69,9.73-18.74,14.99l5.79-6.47c-6.72.94-19.11,21-23.17,22.15,9.55-14.65,22.43-26.65,35.44-38.17-.29,4.53,2.81,1.12,4.77,0,1.28,1.15,3.54-2.49,3.41.68Z"/>
        <path class="cls-24" d="M272.2,118.55c-2.74,1.36-5.48,3.26-8.18,4.77l-.68-.68c.53-.3,1.3-.94,2.04-1.36,2.29-1.3,4.5-2.8,6.82-4.09v1.36Z"/>
        <path class="cls-21" d="M277.65,121.96c-7.9,3.76-16.02,6.52-23.85,10.22l-1.36-.68c3.46-1.95,7.45-5.86,11.59-8.18,2.7-1.51,5.44-3.41,8.18-4.77.32-.16,1.31-.33,2.04-.68,1.41,1.77.73,4.75,3.41,4.09Z"/>
        <path class="cls-26" d="M152.25,124.01l2.73-2.04c11.31,12.19,18.86,22.67,23.17,39.19.77,2.96-1.38,2.25-1.36,2.39h-.68c-11.42-14.28-21.97-32.07-35.44-44.3l1.36-.68c11.4,12.61,22.8,23.8,31.69,38.85-5.08-11.77-12.87-23.88-21.47-33.39Z"/>
        <path class="cls-57" d="M159.07,105.61c2.18,3.14,3.29,6.75,4.77,10.22,2.62,6.13,5.24,12.11,7.5,18.4.04.1-1.77.55-1.36,1.7,1.69,4.82,7.21,11.16,7.5,17.38-.09.13.1.8-.68.68-5.04-14.56-13.22-26.35-23.85-37.48l1.36-.68c.3.38.8-1.05,1.36-.34,4.67,5.91,9.03,12.37,14.31,17.72l-18.4-26.92c2.85-.85,4.69-.57,7.5-.68Z"/>
        <path class="cls-6" d="M190.42,104.92c.47,3.92-.38,7.74-.68,11.59-.8,10.26-.94,20.42-1.36,30.67-.24,5.89-.49,11.89-1.36,17.72-.29-.16-1.68.07-2.04-1.02-.98-2.92.87-16.71.68-21.47-1.13-6.95-.71-14.12-.68-21.13,3.94-2.55,2.04-12.65,2.73-17.04,1.9-.31,2.59.68,2.73.68Z"/>
        <path class="cls-26" d="M224.49,115.83c-2.58,3.34-4.99,6.84-7.5,10.22-8.58,11.55-12.29,18.03-19.08,30.33-.13.23-1.8,3.63-2.04,1.36,6.41-17.14,12.68-29.97,24.53-43.96,1.32,1.72,1.63,2.44,4.09,2.04Z"/>
        <path class="cls-8" d="M197.23,136.27c-1.93,7.4-4.09,15.32-5.45,22.83-.09.49-1.15,5.51.68,5.11-.21.38-1.27,1.33-1.36,1.36-1.14.39-2.97-.06-4.09-.68.87-5.83,1.12-11.83,1.36-17.72.61-.1.76.78,1.36.68,2.03-.34,2.39-9.36,2.73-11.59h4.77Z"/>
        <path class="cls-65" d="M174.74,118.55c1.42,7.91,1.04,15.95,2.73,23.85l-2.04.68c-.96-2.64-3.6-5.88-3.41-8.18.71-4.96-3.05-10.32-4.77-14.99l7.5-1.36Z"/>
        <path class="cls-6" d="M152.94,116.51c10.63,11.14,18.81,22.93,23.85,37.48.6,1.73,4.42,12.6,3.75,12.95-.45.23-3.59-1.72-3.75-3.41-.01-.14,2.14.58,1.36-2.39-4.31-16.51-11.86-27-23.17-39.19-1.82-1.97-7.32-6.35-6.13-8.86,1.2,1.16,2.95,2.21,4.09,3.41Z"/>
        <path class="cls-6" d="M182.24,120.6c.18,11.24,1.11,22.47.68,33.74-1.11-9.36-1.72-18.84-2.04-28.28-.11-3.3-.68-7.07-.68-10.22,0-1.22.67-1.49.68-2.73,2.25-.16,1.33,5.28,1.36,7.5Z"/>
        <path class="cls-60" d="M184.97,111.74c-.03,3.17.01,6.37,0,9.54-.03,7.01-.45,14.18.68,21.13-.16-4.08-.84-13.68-1.36-19.42-.17-1.87.66-2.7-2.04-2.39-.04-2.21.89-7.66-1.36-7.5.03-2.72-.02-5.46,0-8.18,3.55,2.19-1.36,7.58,4.09,6.82Z"/>
        <path class="cls-25" d="M174.74,111.06c.28,1.81.44,3.64.68,5.45.43,3.2,1,6.29,1.36,9.54.39,3.48,2.36,16.5,2.04,18.74-.15,1.09-.36,1.57-1.36.68-.13-.97.19-2.19,0-3.07-1.68-7.91-1.31-15.95-2.73-23.85-.36-2.03-1.47-4.73-2.04-6.82l2.04-.68Z"/>
        <path class="cls-14" d="M180.88,126.05h-4.09c-.37-3.25-.93-6.34-1.36-9.54l4.77-.68c0,3.15.57,6.93.68,10.22Z"/>
        <path class="cls-75" d="M172.02,134.91c-.19,2.3,2.45,5.54,3.41,8.18s3.51,8.05,2.04,10.22c-.28-6.22-5.81-12.56-7.5-17.38-.41-1.16,1.4-1.6,1.36-1.7.53-.07.72.16.68.68Z"/>
        <path class="cls-55" d="M299.46,148.54c.13,3.37,8.05-.64,8.18,2.73-7.28-.1-14.48-.96-21.81-.68v-.68c4.49-.38,9.13-1.05,13.63-1.36Z"/>
        <path class="cls-29" d="M340.35,154.67l-2.04,4.09c-3.4-.45-7.19-1.12-10.56-1.36-2.31-.17-9.12-.95-10.56,1.36-4.58-.86-9.01-1.48-13.63-2.04v-4.09c11.99.16,24.87.77,36.8,2.04Z"/>
        <path class="cls-21" d="M312.41,167.62l-.68,4.09c-11.27-3.49-26.76-8.23-38.17-10.22v-2.04c13.15,1.15,26.18,4.79,38.85,8.18Z"/>
        <path class="cls-55" d="M303.55,152.63v4.09c-7.84-.96-14.5-1.82-22.49-2.04-2.3-.06-4.7.67-6.13.68v-2.04c9.53-.68,19.06-.81,28.62-.68Z"/>
        <path class="cls-87" d="M281.06,156.72c3.45.34,6.82,1,10.22,1.36l-.68,2.04c-12.32-1.76-24.59-2.94-37.14-2.73-1.02-1.73.39-1.19,1.36-1.36,5.98-1.08,19.65.04,26.24.68Z"/>
        <path class="cls-87" d="M273.56,159.45v2.04c-5.33-.93-10.79.16-15.67-1.7-.02-2,14.01-.49,15.67-.34Z"/>
        <path class="cls-66" d="M307.64,160.81l.68,2.73c-6.13-1.38-11.45-2.51-17.72-3.41l.68-2.04c4.42.47,11.59,1.93,16.36,2.73Z"/>
        <path class="cls-5" d="M274.93,153.31v2.04c-3.9.02-7.82.34-11.59-1.02,0-.58,10.62-.95,11.59-1.02Z"/>
        <path class="cls-1" d="M141.35,106.97c.28,3.48,8.6,7.06,3.41,9.54-3.25-2.96-6.67-6.04-10.56-8.18,2.37,3.31,5.13,7.23,7.84,10.22l-1.36.68c-.67-.61-2.02-.77-2.73-1.36-4.2-3.56-8.54-9.6-13.97-9.54,2.4,4.2,6.98,7.12,10.56,10.22l-.68.68c-1.38-1.24-14.36-10.88-14.31-7.84,3.29,2.47,6.49,5.08,9.54,7.84l-1.36,2.04c-4.47-3.65-10.2-6.1-14.31-10.22-1.22-1.22-2.37-1.59-1.36-2.73,6.99-.52,15.25-1.83,21.81-2.04,3.86-.13,4.45-.18,7.5.68Z"/>
        <g>
          <path class="cls-23" d="M205.41,339.37c-3.65,15.48-9.17,29.57-18.4,42.59,1.2,1.76,1.8.22,2.73-.68,2.19-2.13,5.78-8.96,7.5-11.93l2.04,2.04c-.61,1.08-3.14,5.46-.68,4.77-10.56,17.16-23.2,37.87-19.08,58.61-.11,0-.11.68-2.04.68.96-5.78-1.03-13.37-.68-18.74.03-.53,1.31-.15,1.36-.68.61-6.56,1.99-11.88,6.82-18.4-.83-1.32-7.05.43-1.36-5.45-3.45-.36-8.07,7.53-9.54,10.22-3.57,6.51-5.2,13.55-6.13,20.79-.05-2.52-1.63-7.78-.68-12.61,1.08-5.51,8.16-9.91,5.11-15.33-9.06,9.8-8.39,22.75-9.88,34.76-2.07-5.48-2.9-9.56-3.41-14.99-.18-1.97,1.39-7.24-.34-8.86-3.79-.59-9.78,28.89-.34,28.62l-1.02,1.36c-4.89-1.79-11.11-1.96-16.36-4.77-3.51-1.88-6.85-7.26-11.25-7.5,1.28-7.4,1.15-15.03,1.36-22.49.1-3.45.71-6.66.68-10.22,2.65-1.61,1.59-2.82,2.04-4.77.72-3.08.9-5.79,1.36-8.86,2.87,1.95,2.39-1.55,2.73-3.41,2.02-3.58,1.92-7.71,2.73-11.59,2.66,2.74,2.35-.65,3.41-2.73,1.24-2.44,2.31-4.99,3.41-7.5h2.73c-2.78,6.4-5.81,12.85-8.18,19.42-.39,1.08-2.91,7.13-1.36,7.84-.44,1.48-.81,2.98-1.36,4.43l2.04-.34c-.2.67-.92,2.69-.68,3.07h2.04c2.08-8.92,8.45-15.05,12.95-22.15l.68.68c-4.13,5.17-9.72,14.54-11.59,20.79-.42,1.39-1.16,2.87,1.36,2.39-.27.9-.1,2.15-.68,3.07.24.59,1.38.27,1.36.34-.96,4.15-2.93,6.94-3.41,11.93-.2,2.04-.3,14.49,1.7,14.65,3.15-1.72.3-2.85.34-3.07.89-5.15,3.22-15.77,3.41-20.45.02-.38-.74-2.91-1.36-3.07l6.13-11.59,21.81-35.44c-3.19,11.07-6.21,14.18-10.9,23.51-.55,1.09,1.5,1.1,1.36,1.36-2.85,5.72-8.6,11.08-11.59,18.4-.41,1.01-4.27,9.78-.68,9.2-.67,2.45-3.69,12.12-.34,11.59,3.48-2.28.9-5.47,1.02-5.79.26-.7,1.78.02,2.04-.68.11-.28-.05-2.6,0-2.73.62-1.44,2.64-3.21,2.73-3.41.04-.09-1.41-1.28-1.36-1.36.58-1.16,3.1-1.51,3.41-2.04.12-.21.07-3.99.68-4.77.96-1.22,4.19-2.98,5.45-4.43.22-.25,1.84-1.12,2.04-1.36l1.36.68c-4.27,5.44-10.16,10.71-9.2,18.4,2.34-2.56,5.24-4.47,8.52-8.18.55,1.14,3.94-2.53,4.09-2.73,7.08,1.41,8.15-7.7,12.95-11.59,9.45-11.42,12.86-26.15,16.36-40.21l2.04.68Z"/>
          <path class="cls-50" d="M167.93,245.32c-.04,6.64.69,13.17.68,19.76-.03,43.28-1.72,48.83-18.4,87.23h-2.73c2.83-6.5,5.17-13.06,7.5-19.76,1.4-4.05,6.74-16.07,6.82-19.42.06-2.89-2.13-3.23-2.04-3.41.43-.86,2.11.36,2.73-1.02,5.74-20.14,2.86-41.37,2.73-62.02l2.73-1.36Z"/>
          <path class="cls-35" d="M172.7,167.62c-1.26,7.26-2.6,14.46-3.41,21.81-.12,1.14-.54,2.48-.68,4.09-1.54,17.31-.57,34.49-.68,51.8l-2.73,1.36c-.1-15.14-.11-30.17,0-45.32,0-.55-1.36-.27-1.36-.34.06-4.83.81-8.66,1.36-13.63.3-2.69.55-5.47.68-8.18.26-.37,1.08-2.93,1.36-3.41,1.67-2.81.6-7.89,5.45-8.18Z"/>
          <path class="cls-25" d="M199.28,183.3c.22,1.26,1.9.3,2.04,1.02.52,2.66-1.37,11.05,2.73,11.93.07.54,1.07,4.08,1.36,4.77.04.09-1.12,1.61,1.36,1.36-1.8,1.2-1.54,2.51-1.36,4.43.77,8.53,4.3,20.87,6.13,29.65-.99.05-1.74.49-2.73.68-1.17-4.06-1.98-8.44-2.73-12.61-.81-.84-2.74.16-3.41-.68-2.22-2.81-4.68-25.33-4.77-30.67-.06-3.77.81-8.82,1.36-12.61.16.85-.15,1.87,0,2.73Z"/>
          <path class="cls-7" d="M223.13,309.38c.14,1.31.67,2.59.68,2.73.02.45-.03.92,0,1.36.75,10.52-.57,24.45-3.41,37.14-.59,2.63-.2,7.57-3.07,10.56l-4.43-3.41c3.45-4.9,4.98-11.76,6.13-17.72,2.41-12.42,2.53-24.26,2.04-36.8,1.67.05,1.85,4.28,2.04,6.13Z"/>
          <path class="cls-50" d="M211.55,236.46c3.94,18.84,9.15,37.33,10.9,56.57-2.74-1.04-1.46,4.3-1.36,6.82-4.94,2.13-2.95-4.24-3.41-7.5l4.09-1.02-6.82-33.39c-5.86-1.68-1.28,7.72-.68,11.25h-2.73c-.77-3.65-2.08-7.22-2.73-10.9,1.46-.48,3.1-1.71,5.11-1.36l.34-1.7c-2.23-5.88-3.71-12.03-5.45-18.06.98-.19,1.74-.63,2.73-.68Z"/>
          <path class="cls-2" d="M222.45,293.02c.5,5.46,1.01,10.85.68,16.36-.19-1.85-.37-6.08-2.04-6.13-.04-1.13.04-2.28,0-3.41-.09-2.52-1.38-7.86,1.36-6.82Z"/>
          <path class="cls-92" d="M208.82,237.14c1.74,6.03,3.22,12.18,5.45,18.06l-.34,1.7c-2.01-.35-3.65.89-5.11,1.36-.47.15-2.79-1.78-5.45,1.36-1.7,2-.83,2.86-.68,6.13.07,1.43.54,3.37.68,4.77.05.47,1.27,3.36,1.36,4.09.28,2.17.37,5,.68,7.5,3.03,24.42,3.92,32.62-2.04,56.57-3.5,14.06-6.9,28.79-16.36,40.21,4.44-8.91,7.38-18.38,10.22-27.94,5.64-18.97,6.7-27,6.82-47.02.13-22.24-3.94-39.59-6.13-61.34,2.89-4.7,1.14,3.34,3.07,3.41,1.15-1.76-1.28-6.5-.34-7.84.24-.34,6.76-.75,8.18-1.02Z"/>
          <path class="cls-20" d="M208.82,258.27c.64,3.68,1.96,7.26,2.73,10.9s5.29,28.24,4.77,29.65c-.36.98-.28,1.55-1.7,1.02l-7.84-33.05c2.66,12.48,6.28,25.7,6.82,38.51.42,10.18-.76,18.09-2.73,27.94-.82,4.09-2.16,10.47-3.41,14.31-2.36,7.25-6.4,15.18-10.22,21.81-1.71,2.97-5.31,9.79-7.5,11.93-.93.9-1.53,2.44-2.73.68,9.23-13.03,14.75-27.12,18.4-42.59,4.77-20.19,6.36-39.02,2.73-59.63l-2.73,2.39c-.31-2.5-.4-5.33-.68-7.5,3.94,1.01,1.55-7.13-1.36-4.09-.15-1.41-.61-3.34-.68-4.77,3.47-.19,1.96-4.16.68-6.13,2.66-3.14,4.98-1.21,5.45-1.36Z"/>
          <path class="cls-10" d="M171.34,270.53c.2.8.4,2.24.68,3.41l2.73,40.21c0-.07-1.23.24-1.36-.34-.12-.54.42-9.06-2.04-6.82-2.44,7.26-1.51,14.41-4.09,21.81-1.46,4.19-6.4,12.22-8.86,16.36-.64,1.08-1.65-1.14-2.73.68s-1.85,4.28-2.73,5.79c-4.09,7.08-9.99,20.18-12.27,27.94-1.54-.71.97-6.75,1.36-7.84,2.37-6.57,5.4-13.02,8.18-19.42,16.68-38.4,18.37-43.95,18.4-87.23,2.6-.21,2.24,3.5,2.73,5.45Z"/>
          <path class="cls-37" d="M197.23,350.95l-12.95,19.08c-4.25-1.86-6.36,6.37-8.86,9.2-1.42,1.61-4.02,2.79-4.77,3.75l-1.36-.68c8.23-9.86,13.32-16.71,17.04-29.31,1.12.78,1.62.83,2.73,0,4.24-3.19,6.99-17.9,8.18-23.17,1.84-8.17,3.77-16.04,4.09-24.53l2.73-1.36c-.11,20.02-1.17,28.05-6.82,47.02Z"/>
          <path class="cls-56" d="M177.47,435.46c-3.97,0-10.71-3.51-11.59-3.41.93-3.37,2.12-5.03,2.04-8.86.93-7.23,2.56-14.28,6.13-20.79,1.48-2.69,6.1-10.58,9.54-10.22-5.69,5.88.54,4.14,1.36,5.45-4.82,6.52-6.21,11.84-6.82,18.4-.05.53-1.33.15-1.36.68-.35,5.37,1.64,12.96.68,18.74Z"/>
          <path class="cls-23" d="M186.33,331.87c-.25,6.06-1.07,12.42-2.04,18.4-.56,3.43.07,5.48,0,5.79-2.05,9.38-12.05,19.5-17.04,27.6-1.26,1.45-4.49,3.21-5.45,4.43-.62.78-.56,4.56-.68,4.77-.31.54-2.83.89-3.41,2.04-.04.09,1.4,1.27,1.36,1.36-.09.2-2.11,1.97-2.73,3.41-.05.13.11,2.45,0,2.73-.27.7-1.78-.01-2.04.68-.12.32,2.45,3.51-1.02,5.79-3.35.53-.33-9.13.34-11.59.93-3.43,2.68-7.6,4.09-10.9,1.7,1.32,2.35.2,3.41-1.02,10.54-12.18,22.81-37.5,23.85-53.5h1.36Z"/>
          <path class="cls-56" d="M185.65,416.38c-1.05,5.48-3.78,10.97-1.36,17.04-1.96.67-2.53,1.17-4.77,1.36-4.11-20.74,8.52-41.45,19.08-58.61,1.38-2.24,2.67-4.6,4.09-6.82,1.23-.04.81,2.71.68,3.07-3.72,10.46-11.1,16.77-13.63,26.58-.17.64-2.47,4.43-2.73,5.45-.1.41,2.06,2.56,2.04,2.73-.03.29-3.35,4.46-3.41,4.77-.05.28.08,4.03,0,4.43Z"/>
          <path class="cls-20" d="M153.62,380.26l-6.13,11.59h-.68c.02-.07-1.12.25-1.36-.34.58-.92.41-2.16.68-3.07,3.03-10.09,11.53-19.35,14.65-28.62-1.55,1.75-2.98,3.63-4.43,5.45l-.68-.68c4.25-6.71,16.47-24.36,18.4-30.67,3.01,3.63-2.91,9.99-4.09,13.29-.35.98,1.41,1.93,1.36,2.04-2.98,7.33-10.77,16.76-14.99,23.85-.83,1.4-3.38,5.54-2.73,7.16Z"/>
          <path class="cls-92" d="M174.06,333.91c-1.93,6.31-14.15,23.96-18.4,30.67-4.5,7.09-10.87,13.23-12.95,22.15h-2.04c-.24-.37.49-2.39.68-3.07.47-1.6,5.19-12.26,6.13-13.97,1.13-2.04,2.38.41,3.41-1.36,1.14-1.97,1.92-5.96,3.41-8.52,8.51-14.63,18.18-23.74,19.76-42.25,2.86,3.58,1.29,12.15,0,16.36Z"/>
          <path class="cls-52" d="M197.23,350.95c-2.84,9.56-5.78,19.03-10.22,27.94-4.8,3.88-5.87,12.99-12.95,11.59,1.59-2.01,3.52-5.81,4.77-8.18.61-1.17,2.17-9.58,5.45-12.27l12.95-19.08Z"/>
          <path class="cls-79" d="M180.88,308.02c.39,8.14-1.29,16.58-2.73,24.53-.76,4.2-1.54,8.16-2.73,12.27l-21.81,35.44c-.66-1.62,1.9-5.76,2.73-7.16,4.23-7.1,12.02-16.52,14.99-23.85.05-.11-1.72-1.06-1.36-2.04,1.18-3.3,7.1-9.66,4.09-13.29,1.29-4.21,2.86-12.78,0-16.36.1-1.14.91.53.68-2.73h2.04c.03.74-.68,9.16,1.36,7.16l1.36-18.4c2.2-1.05,1.32,3.57,1.36,4.43Z"/>
          <path class="cls-7" d="M218.36,316.19l-3.41,31.35c-2.27-1.2,2.25-7.55-1.36-7.16-.78,1.32-.54,8.44-.68,8.86-.23.69-1.8-.01-2.04.68-4.21,11.75-6.2,11.89-11.59,21.47l-2.04-2.04c3.82-6.63,7.86-14.56,10.22-21.81,3.06,3.24,6.1-9.67,6.13-10.9,3.54-4.84,2.2-13.82,3.41-20.1.11-.58,1.35-.27,1.36-.34Z"/>
          <path class="cls-84" d="M180.88,333.23c-5.56,24.55-14.3,32.32-23.17,53.16-1.41,3.3-3.16,7.48-4.09,10.9-3.59.58.27-8.19.68-9.2,2.99-7.32,8.73-12.68,11.59-18.4.13-.27-1.91-.27-1.36-1.36,4.7-9.33,7.72-12.44,10.9-23.51,1.18-4.11,1.97-8.07,2.73-12.27l2.73.68Z"/>
          <path class="cls-23" d="M184.29,370.03c-3.28,2.69-4.84,11.1-5.45,12.27-3.7,2.8-5.88,7.52-8.86,10.9-3.27,3.71-6.18,5.61-8.52,8.18-.96-7.7,4.93-12.96,9.2-18.4.75-.96,3.35-2.14,4.77-3.75,2.5-2.83,4.61-11.06,8.86-9.2Z"/>
          <path class="cls-56" d="M167.93,423.19c.07,3.83-1.12,5.49-2.04,8.86-.27.03-3.98,3.87-5.11,2.04-.29-.47,1.5-2.48,1.7-4.09,1.49-12.01.82-24.96,9.88-34.76,3.05,5.42-4.03,9.83-5.11,15.33-.95,4.83.63,10.08.68,12.61Z"/>
          <path class="cls-69" d="M205.41,339.37l-2.04-.68c5.96-23.95,5.07-32.14,2.04-56.57l2.73-2.39c3.64,20.61,2.04,39.44-2.73,59.63Z"/>
          <path class="cls-51" d="M154.3,359.81c-1.49,2.55-2.27,6.55-3.41,8.52-1.02,1.77-2.28-.68-3.41,1.36-.94,1.72-5.67,12.37-6.13,13.97l-2.04.34c.55-1.45.93-2.95,1.36-4.43,2.28-7.76,8.17-20.86,12.27-27.94,4.38,1.64-1.76,5.53,1.36,8.18Z"/>
          <path class="cls-51" d="M214.95,347.54c-.1,2.56,1.12.25,1.36-.34.71-1.73.34-5.97,2.73-7.16-1.16,5.96-2.68,12.82-6.13,17.72-2.38,3.37-6.74,6.15-10.22,11.59-1.41,2.21-2.71,4.57-4.09,6.82-2.46.68.07-3.69.68-4.77,5.38-9.58,7.38-9.72,11.59-21.47.25-.69,1.81,0,2.04-.68.14-.42-.1-7.54.68-8.86,3.62-.4-.91,5.96,1.36,7.16Z"/>
          <path class="cls-56" d="M159.07,415.01c-5.17,1.9.01,18.4-.68,19.76-9.44.27-3.45-29.22.34-28.62,1.73,1.62.16,6.89.34,8.86Z"/>
          <path class="cls-58" d="M146.8,391.84h.68c.62.15,1.38,2.69,1.36,3.07-.19,4.67-2.52,15.3-3.41,20.45-.04.22,2.81,1.35-.34,3.07-2.01-.16-1.9-12.61-1.7-14.65.48-4.98,2.44-7.77,3.41-11.93Z"/>
          <path class="cls-17" d="M146.12,388.44c-2.53.49-1.78-.99-1.36-2.39,1.87-6.25,7.46-15.61,11.59-20.79,1.45-1.82,2.88-3.7,4.43-5.45-3.12,9.28-11.62,18.53-14.65,28.62Z"/>
          <path class="cls-17" d="M186.33,351.63c-.11.38.11.99,0,1.36-3.71,12.59-8.81,19.45-17.04,29.31-.2.24-1.83,1.11-2.04,1.36,4.99-8.1,14.99-18.22,17.04-27.6.07-.31-.56-2.36,0-5.79l1.02,3.41,1.02-2.04Z"/>
          <path class="cls-54" d="M174.06,390.48c-.15.19-3.54,3.86-4.09,2.73,2.98-3.38,5.16-8.1,8.86-10.9-1.25,2.37-3.19,6.17-4.77,8.18Z"/>
          <path class="cls-56" d="M206.78,387.07c-3.18,7.91-7.02,13.75-9.54,22.49-2.52,1.59-4.58,7.21-5.45,9.88-1.42,4.38-1.54,12.56-4.77,13.97-.53-6.17.21-11.07,1.36-17.04,2.94-15.18,12.28-27.13,19.08-40.55,7.22-1.98.26,5.72-.68,8.18-.27.7.27,2.39,0,3.07Z"/>
          <path class="cls-40" d="M204.73,398.66l-8.18,30.67c-1.03.36-1.92,1.24-3.07,1.36-1.44-1.11,2.92-18.26,3.75-21.13,2.52-8.74,6.36-14.58,9.54-22.49,1.42,3.47-1.58,7.13-2.04,11.59Z"/>
          <path class="cls-18" d="M206.09,403.43c-.41,5.11-3.28,10.28-2.04,15.67-4.12,2.27,1.27,7.16-7.5,10.22l8.18-30.67c-.03.25,1.46,3.58,1.36,4.77Z"/>
          <path class="cls-56" d="M188.37,416.38c-1.16,5.97-1.89,10.87-1.36,17.04-.57.25-2.05-.23-2.73,0-2.41-6.07.31-11.56,1.36-17.04h2.73Z"/>
          <path class="cls-23" d="M226.54,319.6c-.37.2-1.07-1.38-2.04.34,1.08,13.96-2.28,27.54-2.04,41.23-.45.02-.92-.05-1.36,0-1.65.18-9.81,27.91-10.9,31.35-1.15,3.62-2.4,7.48-4.09,10.9.1-1.19-1.39-4.52-1.36-4.77.47-4.45,3.47-8.12,2.04-11.59.27-.68-.27-2.36,0-3.07.94-2.46,7.91-10.15.68-8.18-6.81,13.42-16.14,25.37-19.08,40.55h-2.73c.08-.4-.05-4.15,0-4.43.06-.31,3.38-4.48,3.41-4.77.02-.17-2.15-2.31-2.04-2.73.26-1.02,2.56-4.81,2.73-5.45,2.53-9.81,9.91-16.12,13.63-26.58.13-.36.55-3.1-.68-3.07,3.48-5.44,7.85-8.21,10.22-11.59l4.43,3.41c2.87-3,2.48-7.93,3.07-10.56,2.83-12.69,4.16-26.63,3.41-37.14.94,2.21,3.26.6,3.41.68,1.89,1.06.19,3.14,4.09,3.75"/>
          <path class="cls-87" d="M202,179.21c.02.09-1.22.04-.68,1.7.34,1.05,2.63,4.67,3.41,5.79-1.53.45.12,1.49,0,2.73s-1.11,3.45-.68,6.82c-4.1-.88-2.21-9.27-2.73-11.93-.14-.72-1.82.24-2.04-1.02,2.95-.09.14-4.84,2.04-6.82.03.17.54,2.21.68,2.73Z"/>
          <path class="cls-59" d="M173.38,260.31c.09,2.42.4,5.73.68,8.18l-2.73,2.04c-.48-1.95-.13-5.66-2.73-5.45,0-6.6-.72-13.12-.68-19.76.11-17.3-.86-34.49.68-51.8l4.77,66.79Z"/>
          <path class="cls-25" d="M174.06,200.34c1.2-.03,1.73,0,2.73.68-.69,6.98-1.63,14.13-2.04,21.13-.71,12.01-1.8,26.31-1.36,38.17l-4.77-66.79c.14-1.61.56-2.95.68-4.09l2.73-1.02.68,12.95c1.64,1.27,1.28-1.02,1.36-1.02Z"/>
          <path class="cls-75" d="M174.74,168.3c.02.07,1.27-.23,1.36.34-2.07,10.35-2.38,20.99-2.04,31.69-.09,0,.28,2.29-1.36,1.02l-.68-12.95-2.73,1.02c.8-7.35,2.14-14.54,3.41-21.81.62-.04.96,1.04,2.04.68Z"/>
          <path class="cls-75" d="M242.21,109.01c-15.07,16.28-33.59,29.84-44.3,49.75-1.09,2.03-4.67,7.12-4.09,8.52s3.65.19,4.09.68c.48.53.95,10.48,1.36,12.61-.55,3.78-1.43,8.83-1.36,12.61.09,5.34,2.56,27.86,4.77,30.67.66.84,2.6-.16,3.41.68.74,4.17,1.55,8.55,2.73,12.61-1.42.27-7.94.69-8.18,1.02-.94,1.34,1.49,6.08.34,7.84-1.93-.07-.17-8.1-3.07-3.41-.36-3.55-.47-6.99-.68-10.56-.02-.32,3.44-1.57-2.73-3.07-.32-3.1-1.71-6.91-2.04-10.9,1.8-13.03.28-27.16,2.04-40.55l-2.73-1.7c.41-2.41,2.68-2.07,2.73-2.39.04-.28-3.16-1.95-.68-4.77-.62-2.05-6.38-.07-7.5,1.36v41.57h-4.09c.89,5.16.86,10.46.68,15.67-.04,1.25.69,3.36-1.36,3.07-.01-.23.01-.46,0-.68-.48-7.89-2.02-19.21-2.04-25.56-.01-3.23,1.28-2.86,1.36-4.77.02-.47-1.58.31-1.36-2.04.03-.34,2.01-1.7,2.04-2.04.34-3.58,2.52-25.21,2.04-26.58-.07-.22-1.02-1.35-1.36-.68-2.46.83-.71,8.97-1.36,10.9-.38,1.14-2.63.32-3.41,3.41-.87,3.44-.21,13.99-.68,18.74-1-.68-1.53-.71-2.73-.68-.33-10.7-.02-21.34,2.04-31.69-.09-.57-1.34-.27-1.36-.34-.34-.96,1.58.03-1.36-2.73.72-2.2.94-1.42,2.73-2.04h.68c.16,1.69,3.3,3.64,3.75,3.41.67-.35-3.15-11.22-3.75-12.95.78.12.59-.55.68-.68,1.47-2.17-1.1-7.62-2.04-10.22l2.04-.68c.19.88-.13,2.1,0,3.07,1,.89,1.21.41,1.36-.68.31-2.24-1.65-15.26-2.04-18.74h4.09c.33,9.44.94,18.92,2.04,28.28.43-11.27-.5-22.5-.68-33.74,2.71-.31,1.87.52,2.04,2.39.53,5.74,1.2,15.34,1.36,19.42.18,4.76-1.66,18.54-.68,21.47.37,1.1,1.76.86,2.04,1.02,1.12.62,2.94,1.07,4.09.68,3.7.16,2.76-5.2,3.41-7.16,5.52-16.72,13.17-31.97,23.85-46,1.01.08,1.22.22,2.04.68-.11.13.11.55,0,.68-11.85,13.98-18.12,26.82-24.53,43.96.24,2.26,1.92-1.13,2.04-1.36,6.79-12.3,10.5-18.78,19.08-30.33l.68,1.36c-1.54,1.85-5.23,5.75-5.11,8.18,7.82-7.43,14.56-16.25,22.15-23.85,1.68-1.68,9-10.14,7.5-2.73Z"/>
          <path class="cls-92" d="M211.55,269.17h2.73c1.3,7.73,2.31,15.42,3.41,23.17.46,3.25-1.53,9.62,3.41,7.5.04,1.13-.04,2.28,0,3.41.48,12.54.37,24.38-2.04,36.8-2.39,1.19-2.02,5.42-2.73,7.16-.24.59-1.47,2.91-1.36.34l3.41-31.35c.39-1.65.46-2.84.68-4.43-3.95-1.78.18,2.8-2.73,2.04l-2.73-8.52c-.53-12.81-4.16-26.02-6.82-38.51l7.84,33.05c1.42.53,1.34-.05,1.7-1.02.52-1.41-4-26.02-4.77-29.65Z"/>
          <path class="cls-92" d="M217.68,292.34c-1.1-7.75-2.1-15.44-3.41-23.17-.59-3.52-5.18-12.92.68-11.25l6.82,33.39-4.09,1.02Z"/>
          <path class="cls-69" d="M197.92,242.59c2.19,21.75,6.26,39.1,6.13,61.34l-2.73,1.36c.75-20.1-3.49-40.71-5.45-60.66-.52-5.23-.83-10.48-1.36-15.67,6.17,1.5,2.71,2.75,2.73,3.07.21,3.57.32,7.02.68,10.56Z"/>
          <path class="cls-10" d="M204.73,274.62c-.09-.73-1.31-3.62-1.36-4.09,2.92-3.04,5.3,5.1,1.36,4.09Z"/>
          <path class="cls-10" d="M202.69,265.76c-.15-3.27-1.01-4.13.68-6.13,1.28,1.98,2.79,5.94-.68,6.13Z"/>
          <path class="cls-37" d="M218.36,316.19c-.02.07-1.25-.24-1.36.34-1.21,6.28.13,15.27-3.41,20.1.04-1.4-.97-3.25-2.73-3.41,1.97-9.85,3.15-17.76,2.73-27.94l2.73,8.52c2.9.76-1.23-3.82,2.73-2.04-.22,1.59-.29,2.78-.68,4.43Z"/>
          <path class="cls-3" d="M213.59,336.64c-.03,1.24-3.07,14.14-6.13,10.9,1.25-3.85,2.59-10.22,3.41-14.31,1.75.15,2.76,2.01,2.73,3.41Z"/>
          <path class="cls-20" d="M174.74,314.15c.03.22-.02.46,0,.68.22,3.26-.58,1.58-.68,2.73-1.58,18.52-11.26,27.62-19.76,42.25-3.13-2.65,3.02-6.54-1.36-8.18.88-1.52,1.63-3.94,2.73-5.79s2.09.4,2.73-.68c2.46-4.14,7.4-12.17,8.86-16.36,2.58-7.4,1.65-14.55,4.09-21.81,2.47-2.24,1.92,6.27,2.04,6.82.13.58,1.35.27,1.36.34Z"/>
          <path class="cls-19" d="M178.15,274.62c.97,8.91,3.55,17.48,4.09,26.58.14,2.3,2.3,7.32-1.36,6.82-.04-.86.84-5.48-1.36-4.43l-1.36,18.4c-2.04,2-1.33-6.41-1.36-7.16-.66-14.64-1.52-27.3-4.77-40.89-.28-1.17-.48-2.61-.68-3.41l2.73-2.04c.39,3.41-.6,7.52,4.09,6.13Z"/>
          <path class="cls-82" d="M176.79,314.83h-2.04c-.02-.23.03-.46,0-.68l-2.73-40.21c3.25,13.59,4.11,26.25,4.77,40.89Z"/>
          <path class="cls-92" d="M195.87,244.63c1.97,19.95,6.2,40.56,5.45,60.66-.32,8.5-2.25,16.36-4.09,24.53l-3.41,1.02c3.38-9.35,3.68-19.13,4.09-28.96.83-19.82-1.76-35.1-3.41-54.18-.1-1.14-.57-3.41,1.36-3.07Z"/>
          <path class="cls-69" d="M197.92,301.88c-.41,9.83-.71,19.62-4.09,28.96l3.41-1.02c-1.18,5.27-3.94,19.98-8.18,23.17,1.09-6.25,8.39-15.05.68-17.72,2.01-10.79,4.71-22.37,4.77-33.39h3.41Z"/>
          <path class="cls-37" d="M189.06,353c-1.11.83-1.6.78-2.73,0,.11-.37-.11-.99,0-1.36,1.53-5.48,2.37-10.79,3.41-16.36,7.71,2.67.41,11.47-.68,17.72Z"/>
          <path class="cls-92" d="M194.51,301.88c-.06,11.02-2.76,22.6-4.77,33.39-1.04,5.57-1.88,10.88-3.41,16.36l-1.02,2.04-1.02-3.41c.98-5.98,1.79-12.34,2.04-18.4.43-10.38-.74-21.01-1.36-31.35-.37-6.18-.93-12.26-1.36-18.4l2.73-1.36c1.15,11.89,2.75,23.78,2.73,35.78,1.79-1.62,1.9-7.8,2.04-10.22.77-12.8-.8-25.56-2.73-38.17,2.3-1.53,2.29,2.21,2.73,4.09,1.78,7.6,3.45,21.82,3.41,29.65Z"/>
          <path class="cls-51" d="M184.97,331.87c-1.04,16-13.31,41.32-23.85,53.5-1.06,1.22-1.7,2.34-3.41,1.02,8.87-20.84,17.62-28.61,23.17-53.16.77-3.41,1.45-6.72,1.7-10.22,2.73-2.29,2.47,7.63,2.39,8.86Z"/>
          <path class="cls-69" d="M184.97,300.52c.62,10.34,1.79,20.97,1.36,31.35h-1.36c.08-1.23.35-11.15-2.39-8.86-.26,3.5-.93,6.82-1.7,10.22l-2.73-.68c1.44-7.95,3.11-16.39,2.73-24.53,3.67.51,1.5-4.51,1.36-6.82l2.73-.68Z"/>
          <path class="cls-19" d="M177.47,222.14c-.69,18.26-1.29,34.28.68,52.48-4.69,1.39-3.7-2.72-4.09-6.13-.28-2.45-.59-5.76-.68-8.18-.44-11.86.65-26.16,1.36-38.17.82.14,2.09-.22,2.73,0Z"/>
          <path class="cls-74" d="M181.56,229.64l-2.04.68c-.34-2.85-.26-7.56-2.04-8.18-.64-.22-1.91.14-2.73,0,.41-6.99,1.35-14.14,2.04-21.13.47-4.75-.19-15.3.68-18.74.78-3.09,3.02-2.27,3.41-3.41.65-1.93-1.09-10.07,1.36-10.9.34-.67,1.29.47,1.36.68.47,1.37-1.71,23-2.04,26.58-.03.34-2.01,1.7-2.04,2.04-.22,2.36,1.38,1.58,1.36,2.04-.08,1.91-1.37,1.54-1.36,4.77.02,6.35,1.56,17.66,2.04,25.56Z"/>
          <path class="cls-43" d="M191.78,175.8c-2.32,13.74-.48,28.55.68,42.25.34,4,1.73,7.8,2.04,10.9.53,5.19.85,10.44,1.36,15.67-1.94-.34-1.46,1.92-1.36,3.07,1.64,19.08,4.24,34.36,3.41,54.18h-3.41c.04-7.82-1.63-22.05-3.41-29.65-.44-1.88-.43-5.62-2.73-4.09,1.93,12.61,3.49,25.36,2.73,38.17-.15,2.42-.25,8.61-2.04,10.22.02-12-1.58-23.89-2.73-35.78-1.62-16.74-3.72-33.64-4.77-50.43,2.05.3,1.32-1.82,1.36-3.07.18-5.22.21-10.51-.68-15.67h4.09v-41.57c1.11-1.44,6.87-3.41,7.5-1.36-2.48,2.82.72,4.49.68,4.77-.04.32-2.32-.03-2.73,2.39Z"/>
          <path class="cls-19" d="M181.56,229.64c.01.23-.01.46,0,.68,1.05,16.79,3.16,33.69,4.77,50.43l-2.73,1.36c-1.14-16.27-2.17-35.91-4.09-51.8l2.04-.68Z"/>
          <path class="cls-35" d="M192.46,218.06c-1.16-13.7-3-28.51-.68-42.25l2.73,1.7c-1.76,13.39-.25,27.52-2.04,40.55Z"/>
          <path class="cls-19" d="M179.51,230.32c1.92,15.88,2.95,35.53,4.09,51.8.43,6.14.99,12.22,1.36,18.4l-2.73.68c-.54-9.1-3.12-17.67-4.09-26.58-1.97-18.2-1.37-34.21-.68-52.48,1.78.62,1.7,5.33,2.04,8.18Z"/>
        </g>
        <path class="cls-26" d="M252.44,131.5l1.36.68c-7.01,3.31-15.99,7.57-22.49,11.59l-.68-.68c7.02-4.28,14.67-7.55,21.81-11.59Z"/>
        <path class="cls-68" d="M280.38,142.41c-7.1,1.3-14.31,2.38-21.47,3.41,5.82-3.42,13.01-3.45,19.42-4.77,3.07-.63,21.7-5.04,22.83-4.77.49.12,1.59,1.56.68,2.04-7.24.89-14.32,2.78-21.47,4.09Z"/>
        <path class="cls-70" d="M102.5,136.27l-.68,2.04c-7.69-2.14-15.46-4.07-23.17-6.13l-33.05-8.86c-.87-.62.15-1.86.68-2.04,3.97-1.39,48.17,12.86,56.23,14.99Z"/>
        <path class="cls-9" d="M101.82,138.32c6.5,1.81,13.25,2.87,19.76,4.77l-2.04,1.36c-10.78-2.31-21.6-3.6-32.71-6.13-2.59-.59-4.92-1.48-7.5-2.04-.7-2.16-1.84-1.37-.68-4.09,7.71,2.07,15.48,4,23.17,6.13Z"/>
        <path class="cls-44" d="M100.46,122.64c5.68,2.27,11.38,4.47,17.04,6.82l-.68,1.36c-1.29-.51-3.46-.43-4.09-.68-4.28-1.69-8.72-3.06-12.95-4.77-6.53-2.64-14.28-6.07-19.76-10.56,6.77-.22,13.73,5.15,20.45,7.84Z"/>
        <path class="cls-28" d="M122.95,124.69l-.68,1.36c-2.36-.95-6.53-1.3-8.86-2.04-.68-.22-2.26-.95-3.41-1.36-4.83-1.89-9.03-5.27-13.63-7.5-.14-1.34.98-2.27,2.04-2.73,8.31,3.8,16.41,8.1,24.53,12.27Z"/>
        <path class="cls-49" d="M98.41,127.41c3.56,1.55,15.19,4.73,6.13,5.11,2.14.21,4.46,1.8,6.13,2.39l-.68,1.36c-5.66-1.92-12.28-4.38-17.72-6.82-.45-.2-2.11-1-.68-1.36.62.23,9.14,2.9,7.16.68l-25.22-12.95c8.21,4.1,16.46,7.92,24.88,11.59Z"/>
        <path class="cls-44" d="M112.04,117.19c4.5,2.28,9.17,5.05,13.63,7.5,3.19,1.74,6.55,3.31,9.88,4.77l4.09,4.77c-4.96-4.21-11-6.61-16.7-9.54-8.12-4.17-16.23-8.47-24.53-12.27,4.19-1.8,9.42,2.63,13.63,4.77Z"/>
        <path class="cls-66" d="M110,122.64c1.15.41,2.73,1.15,3.41,1.36,1.93,1.42,8.15,4.25,10.22,4.77-2.28,1.56,3.52,1.75,4.09,3.41-2.79-1.16-7.92-1.77-10.22-2.73-5.65-2.34-11.36-4.54-17.04-6.82l4.09-1.36c2.36.93,5.01,1.21,5.45,1.36Z"/>
        <path class="cls-17" d="M91.6,128.1c-1.42.36.23,1.16.68,1.36l-5.79.68c-1.27-2.19,2.02-.89,2.39-1.7.59-1.34-25.31-8.56-27.26-10.22,10.96.18,20.56,6.47,29.99,9.88Z"/>
        <path class="cls-9" d="M112.73,130.14l-2.73,3.07,4.09,2.39c-1.4-.45-2.74-.45-3.41-.68-1.68-.59-3.99-2.18-6.13-2.39,9.05-.38-2.57-3.56-6.13-5.11l1.36-2.04c4.23,1.71,8.67,3.08,12.95,4.77Z"/>
        <path class="cls-42" d="M126.36,122.64l-.68,2.04c-4.46-2.44-9.13-5.22-13.63-7.5l1.36-3.41c4.26,3.02,9.09,5.26,12.95,8.86Z"/>
        <path class="cls-80" d="M113.41,111.06c4.11,4.12,9.85,6.57,14.31,10.22,1.32,1.08,3.11,2.42,4.09,3.75l-5.45-2.39c-3.86-3.6-8.69-5.84-12.95-8.86-1.29-.92-2.61-1.77-4.09-2.39l4.09-.34Z"/>
        <path class="cls-84" d="M96.37,115.15c4.6,2.22,8.8,5.61,13.63,7.5-.44-.16-3.09-.44-5.45-1.36-5.07-1.99-8.7-5.52-13.97-6.82-.25-3.52,4.74.17,5.79.68Z"/>
        <path class="cls-87" d="M123.63,141.04v-.68c1.7.6,4.37.73,6.13,1.7-.98,2.42-5.09-.77-6.13-1.02Z"/>
        <path class="cls-87" d="M116.81,130.82c24.04,9.55,28.35,11.49,47.71,28.62-16.51-11.48-31.5-17.75-50.43-23.85l-4.09-2.39,2.73-3.07c.63.25,2.8.17,4.09.68Z"/>
        <path class="cls-35" d="M168.61,159.45c-1.46,1.08-1.38.17-2.39-.68-5.18-4.37-10.54-11.08-16.02-14.99-.04-1.06.95-.52,1.36-.68.93-.37.64-.66.68-.68.73-.37,1.87-.44,2.73-1.36,4.51,5.89,10.12,11.85,13.63,18.4Z"/>
        <path class="cls-5" d="M137.94,121.28c8.46,7.89,10.25,10.9,17.04,19.76-.86.92-2,1-2.73,1.36-3.03-5.42-7.24-10.03-10.9-14.99-1.5-2.03-2.55-4.27-4.77-5.79l1.36-.34Z"/>
        <path class="cls-89" d="M137.94,117.87c-1.96-.16-1.48.77-.68,2.04-.11-.1-1.88-.63-2.73-1.36-3.58-3.1-8.16-6.03-10.56-10.22,5.43-.06,9.77,5.98,13.97,9.54Z"/>
        <path class="cls-21" d="M137.26,119.92c.07.06.61,1.3.68,1.36l-1.36.34c2.22,1.52,3.27,3.77,4.77,5.79-3.31-1.63-5.15-6.07-7.5-8.18l.68-.68c.84.73,2.61,1.26,2.73,1.36Z"/>
        <path class="cls-65" d="M151.57,143.09c-.41.16-1.4-.38-1.36.68-6.61-4.72-15.02-8.47-22.49-11.59-.57-1.66-6.37-1.85-4.09-3.41.91.23,2.67.83,3.41-.34-1.59-.38-3.55-1.89-4.77-2.39l.68-1.36c5.7,2.93,11.73,5.33,16.7,9.54l-4.09-4.77c-3.34-1.46-6.69-3.03-9.88-4.77l.68-2.04,5.45,2.39c-.98-1.33-2.77-2.67-4.09-3.75l1.36-2.04c8.19,7.42,15.99,14.89,22.49,23.85Z"/>
        <path class="cls-1" d="M172.7,111.74c.58,2.08,1.68,4.79,2.04,6.82l-7.5,1.36c-.45-1.22-.78-3.33-1.36-4.77-.66-1.64-2.48-8.47-2.73-8.86,9.8-5.69,7.79-.88,9.54,5.45Z"/>
        <path class="cls-1" d="M180.88,104.92c-.02,2.72.03,5.46,0,8.18-.02,1.24-.68,1.51-.68,2.73l-4.77.68c-.24-1.81-.4-3.64-.68-5.45-.18-1.2-2.38-5.86-1.02-6.82,2.32.22,5.05-.61,7.16.68Z"/>
        <path class="cls-21" d="M148.85,113.1c-1.19,2.51,4.31,6.89,6.13,8.86l-2.73,2.04c-1.85-2.05-5.44-5.63-7.5-7.5,5.19-2.48-3.12-6.06-3.41-9.54,6.07,1.72,3.71,2.49,7.5,6.13Z"/>
        <path class="cls-62" d="M196.55,104.92c-.3,2.1-.86,4.09-1.36,6.13-.05.21.05.47,0,.68-3.27.83-.1,6.1-5.45,4.77.3-3.84,1.15-7.67.68-11.59,1.41-.01,4.13-1.79,6.13,0Z"/>
        <path class="cls-68" d="M151.57,106.29l18.4,26.92c-5.28-5.35-9.64-11.81-14.31-17.72-.56-.71-1.07.72-1.36.34-1.31-1.68-2.95-6.9-5.45-8.52.79-1.42,1.85-.76,2.73-1.02Z"/>
        <path class="cls-44" d="M187.69,104.24c-.69,4.39,1.21,14.49-2.73,17.04.01-3.17-.03-6.37,0-9.54.03-2.49-.28-4.73-.68-7.16.61-.73,2.5-.19,3.41-.34Z"/>
        <path class="cls-89" d="M163.16,106.29c.25.39,2.06,7.22,2.73,8.86l-2.04.68c-1.48-3.47-2.59-7.08-4.77-10.22.27-.01,2-2.6,4.09.68Z"/>
        <path class="cls-26" d="M209.5,116.51c-3.69,8.19-7.12,16.54-11.25,24.53-.9-8.9,5.42-16.72,7.84-24.53h3.41Z"/>
        <path class="cls-6" d="M197.23,111.06c-1.9,9.03-3.39,15.94-4.77,25.22-.33,2.23-.69,11.25-2.73,11.59-.47-12.65,2.49-24.08,5.45-36.12.05-.21-.05-.47,0-.68h2.04Z"/>
        <path class="cls-87" d="M261.3,132.87c-2.02.72-3.98,2.2-6.13,2.73-.03-.06-1.91.25-1.02-.68,2.44-.98,4.85-2.16,7.16-3.41v1.36Z"/>
        <path class="cls-85" d="M144.76,116.51c2.06,1.87,5.64,5.44,7.5,7.5,8.6,9.52,16.38,21.62,21.47,33.39-8.89-15.05-20.29-26.24-31.69-38.85-2.71-2.99-5.47-6.91-7.84-10.22,3.9,2.13,7.31,5.22,10.56,8.18Z"/>
        <path class="cls-68" d="M165.88,115.15c.58,1.44.91,3.55,1.36,4.77,1.72,4.67,5.48,10.04,4.77,14.99.04-.52-.15-.75-.68-.68-2.26-6.29-4.88-12.27-7.5-18.4l2.04-.68Z"/>
        <path class="cls-87" d="M195.19,111.74c-2.96,12.04-5.92,23.47-5.45,36.12-.6.1-.76-.78-1.36-.68.42-10.25.56-20.41,1.36-30.67,5.35,1.33,2.18-3.95,5.45-4.77Z"/>
        <path class="cls-25" d="M133.85,119.24c2.35,2.11,4.18,6.55,7.5,8.18,3.67,4.96,7.87,9.57,10.9,14.99-.04.02.25.32-.68.68-6.5-8.96-14.3-16.44-22.49-23.85-3.05-2.76-6.25-5.37-9.54-7.84-.05-3.04,12.93,6.6,14.31,7.84Z"/>
        <path class="cls-78" d="M122.27,126.05c1.22.49,3.18,2.01,4.77,2.39-.73,1.17-2.49.57-3.41.34-2.07-.52-8.29-3.35-10.22-4.77,2.33.74,6.5,1.09,8.86,2.04Z"/>
      </g>
    </g>
  </g>
</svg>